<svg width="232" height="53" viewBox="0 0 232 53" fill="none" xmlns="http://www.w3.org/2000/svg">
<path d="M105.6 14.8C105.7 14.7 105.7 14.6 105.7 14.5C105.7 14.5 105.7 14.4 105.8 14.4C105.9 14.3 105.9 14.2 106 14.2C106.1 14.2 106.2 14.2 106.3 14.2C106.3 14.2 106.3 14.2 106.3 14.1C106.3 14.1 106.3 14 106.2 14C106.1 14 106.1 14 106 14C105.9 14 105.9 13.9 105.8 13.9L105.6 13.8C105.5 13.8 105.4 13.7 105.4 13.7C105.2 13.6 105.1 13.6 104.9 13.6C104.7 13.6 104.5 13.6 104.4 13.7C104.2 13.7 104 13.8 103.9 13.9C103.8 14 103.6 14.1 103.5 14.3C103.3 14.6 103.2 14.9 103.2 15.2V15.3H103.3C103.3 15.2 103.4 15.2 103.4 15.1C103.6 15.2 103.8 15.4 104.1 15.4C104.2 15.4 104.3 15.4 104.5 15.4C104.7 15.4 104.9 15.4 105 15.3C105.1 15.3 105.3 15.2 105.4 15.1C105.5 15.1 105.6 14.9 105.6 14.8ZM104.8 15.1C104.6 15.2 104.3 15.2 104.1 15.2C103.9 15.2 103.7 15.1 103.5 15C103.6 14.9 103.6 14.8 103.7 14.7C103.8 15 104.2 15.2 104.5 15.1C104.8 15 105 14.6 104.9 14.3C104.9 14.2 104.8 14.2 104.8 14.1C105 14.1 105.1 14.1 105.3 14.1C105.4 14.1 105.5 14.1 105.6 14.2H105.7C105.6 14.3 105.6 14.3 105.6 14.4C105.6 14.5 105.5 14.5 105.5 14.6C105.4 14.7 105.4 14.7 105.4 14.8C105.2 14.8 105.1 15 104.8 15.1ZM134.8 34.2C134.8 33.8 134.8 33.8 134.7 33.8C134.7 33.8 134.7 33.8 134.6 33.8V33.9C134.4 34.7 134.1 35 134 35.1C133.4 35.9 132.4 36.4 131.4 36.4H98.9999C97.6999 36.4 96.4999 35.7 95.9999 34.5C95.8999 34.4 95.7999 34.1 95.7999 33.9C95.7999 33.9 95.7999 33.8 95.6999 33.8C95.5999 33.8 95.5999 33.9 95.5999 34.2C95.5999 34.4 95.5999 34.6 95.5999 34.7C95.5999 36.6 97.1999 38.2 99.0999 38.2H131.5C133.4 38.2 135 36.6 135 34.7C134.8 34.6 134.8 34.3 134.8 34.2Z" fill="black"/>
<path d="M123.3 24C123.3 23.6 123.5 23.3 123.8 23.1C123.6 23 123.5 22.9 123.3 22.8C123.1 22.9 122.9 23.1 122.9 23.4C122.9 23.6 123 23.9 123.3 24Z" fill="black"/>
<path d="M124 24.6C124.1 24.3 124.3 24 124.5 23.9C124.4 23.8 124.2 23.6 124.1 23.5L124 23.4C123.7 23.5 123.6 23.7 123.6 24C123.6 24.3 123.8 24.5 124 24.6Z" fill="black"/>
<path d="M124.6 25.3C124.6 25 124.8 24.7 125.1 24.6C125 24.5 124.8 24.3 124.7 24.2C124.4 24.3 124.3 24.5 124.3 24.8C124.3 25 124.4 25.2 124.6 25.3Z" fill="black"/>
<path d="M125.3 26C125.3 25.7 125.5 25.4 125.8 25.2C125.7 25.1 125.5 24.9 125.4 24.8C125.1 24.9 125 25.1 125 25.4C125 25.7 125.1 25.9 125.3 26Z" fill="black"/>
<path d="M126.1 26.7C126.1 26.4 126.3 26.1 126.6 25.9C126.5 25.8 126.5 25.8 126.4 25.7C126.3 25.6 126.3 25.6 126.2 25.5C126 25.6 125.8 25.8 125.8 26.1C125.7 26.3 125.8 26.6 126.1 26.7Z" fill="black"/>
<path d="M130.5 28.2C130.6 28.2 130.8 28.1 130.9 28.1C130.6 28 130.4 27.7 130.3 27.3C130.1 27.3 130 27.3 129.8 27.3C129.8 27.4 129.8 27.4 129.8 27.5C129.8 27.9 130.1 28.2 130.5 28.2ZM129.7 28.2C129.6 28 129.5 27.8 129.5 27.5C129.5 27.4 129.5 27.3 129.5 27.3C129.4 27.3 129.2 27.3 129.1 27.2C129 27.3 129 27.4 129 27.5C129 27.9 129.3 28.2 129.7 28.2ZM128.7 28.1H128.8C128.7 27.9 128.6 27.8 128.6 27.6C128.6 27.5 128.6 27.3 128.7 27.2C128.5 27.1 128.4 27.1 128.2 27C128.1 27.1 128 27.3 128 27.5C128.1 27.8 128.4 28.1 128.7 28.1ZM127.8 27.8C127.8 27.8 127.8 27.7 127.8 27.6C127.8 27.5 127.8 27.5 127.8 27.4C127.8 27.2 127.9 27 128 26.8C127.9 26.7 127.7 26.7 127.6 26.6C127.4 26.7 127.3 26.9 127.3 27.1C127.2 27.5 127.5 27.7 127.8 27.8ZM126.9 27.4C126.9 27.3 126.9 27.3 126.9 27.2C126.9 26.9 127 26.7 127.2 26.5C127.1 26.4 126.9 26.3 126.8 26.2C126.6 26.3 126.4 26.5 126.4 26.8C126.4 27 126.6 27.3 126.9 27.4Z" fill="black"/>
<path d="M131.3 27.8C131.6 27.8 131.9 27.5 131.9 27.1C131.9 27 131.9 26.9 131.8 26.8C131.4 27 131.1 27.1 130.7 27.2C130.7 27.6 131 27.8 131.3 27.8Z" fill="black"/>
<path d="M98.5998 35.5C98.8998 35.6 99.1998 35.6 99.4998 35.6C99.5998 35.6 99.5998 35.6 99.6998 35.6C100.3 35.6 100.8 35.5 101.1 35.4C101.2 35.4 101.4 35.3 101.5 35.3C101.8 35.3 102.2 35.3 102.7 35.3C102.9 35.3 103.1 35.3 103.3 35.4C104.5 35.5 106 35.6 107 35.6C107.1 35.6 107.2 35.6 107.3 35.6H107.4C108.6 35.6 109.3 35.1 109.4 35C109.7 35.3 111.2 35.5 111.8 35.5C112.2 35.5 112.6 35.5 113.1 35.5C115.1 35.5 117.2 35.3 118.3 35.1C120.3 35.5 123.8 35.6 125.7 35.6C127.8 35.6 129.5 35.5 129.8 35.5C129.8 35.5 129.9 35.5 130 35.5C130.6 35.4 132 35.3 132.6 34C132.8 33.5 132.8 33 132.5 32.4C132.5 32.4 132.5 32.4 132.5 32.3C133.5 31.2 133.7 29.1 133.3 27.7C133.1 26.7 132.6 26 132.5 25.9C132.4 25.7 132 24.5 131.4 23.6C130.7 22.2 129.2 21.3 127.3 20.9C126.5 20.7 125.6 20.6 124.7 20.6C124.2 20.6 123.6 20.6 123.2 20.7C123.1 20.7 122.9 20.7 122.7 20.8C121.8 21 120 21.3 119.4 21.3C119.2 21.3 119.1 21.2 119 21.1C118.7 20.8 118.9 20.1 118.9 19.9C119.1 19 118.8 18.3 118.2 17.8C117.9 17.6 117.6 17.5 117.1 17.5C116.7 17.5 116.3 17.6 115.9 17.7C115.8 17.7 115.7 17.8 115.6 17.8C115.2 17.9 114.9 18 114.5 18C114.3 18 114.1 18 113.9 17.9C113.8 17.9 113.8 17.8 113.7 17.8C112.8 17.3 111.2 15.6 111 15.4C111.1 15.2 111.2 15.1 111.2 14.9C111.2 14.8 111.3 14.7 111.4 14.5C111.5 14.3 111.7 13.9 111.8 13.8C111.8 13.7 111.8 13.7 111.8 13.6C111.8 13.5 111.7 13.5 111.7 13.5C111.3 13.3 110.8 13.2 110.5 13.2H110.4V13.1C110.9 12.3 111.4 11.1 111.4 11C111.4 10.9 111.4 10.9 111.4 10.8C111.4 10.7 111.3 10.7 111.2 10.7C108.9 10.8 108 11.3 107.7 11.6C107.5 11.4 107.2 11.3 106.8 11.3C106.7 11.3 106.5 11.3 106.4 11.4C105.8 11.6 105.5 12 105.4 12.3C105.1 12.4 104.3 12.6 103.5 13.7C102.4 15.1 101.3 15.9 100.7 16.2C100.6 16.3 100.5 16.3 100.4 16.4C99.6998 16.9 99.0998 17.7 99.8998 19.2C100.5 20.3 101.9 20.7 103 20.7C103.3 20.7 103.6 20.7 103.9 20.6C104 20.8 104.3 21.3 104.1 21.8C104 22 103.9 22.2 103.8 22.4C103.8 22.5 103.7 22.5 103.7 22.6C103.4 23.1 103.2 23.5 103.4 24.3C103.1 24.5 102.7 24.9 102.6 25.4C102.5 25.7 102.6 26 102.6 26.2V26.3C102.6 26.4 102.4 26.4 102.3 26.3H102.2C102.1 26.3 102.1 26.3 102 26.3C101.7 26.2 101.4 26.1 101.1 26.1C100.9 26.1 100.6 26.1 100.4 26.2C99.7998 26.4 98.8998 27.2 98.1998 29.1C97.9998 29.6 97.7998 30.1 97.9998 30.5C98.0998 30.6 98.0998 30.9 97.5998 31.1C97.3998 31.2 97.1998 31.5 97.1998 31.7C97.1998 31.9 97.1998 32 97.2998 32.1C97.2998 32.2 97.3998 32.3 97.2998 32.4C97.1998 32.5 97.0998 32.7 96.9998 32.9C96.7998 33.3 96.7998 33.4 96.7998 33.6C96.8998 34.4 97.4998 35.2 98.5998 35.5ZM102.4 34.4C101.6 34.5 101.1 34.2 101.2 33.7C101.3 33.2 101.4 32.6 101.4 32.4C101.4 32.2 101.5 31.9 101.8 31.8C102.1 31.6 102.5 31.6 103 32C103.4 32.3 103.7 32.7 103.9 33C104.6 34.1 103.4 34.3 102.4 34.4ZM119.2 31.2C119.2 31.4 119 31.9 118.4 31.9C117.7 31.9 117.7 31.2 117.7 31.1C117.7 30.9 117.7 30.8 117.8 30.3C117.9 29.8 118.2 29.7 118.6 29.7C119.1 29.7 119.3 30.2 119.3 30.3C119.3 30.5 119.2 31 119.2 31.2ZM121 34.6C120.3 34.5 120 34.4 120 33.8C120.1 33.1 121.1 33.6 121.2 33.4C121.3 33.3 120.8 33.2 120.4 33C120 32.8 120.1 32.3 120.8 32C121.5 31.7 122.1 32 122.4 32.2C122.7 32.4 122.4 32.5 122.4 32.5C121.1 32.9 121 34.1 121 34.4C121.1 34.6 121.1 34.6 121 34.6ZM124.3 35L124.2 35.1C123.7 35.2 123.2 35.1 123 35.1C122.9 35.1 122.9 35 122.9 35C122.9 34.6 123.1 34.1 123.2 33.9C123.4 33.7 123.1 33.4 122.8 33.7C122.5 34.1 122.4 34.7 122.4 34.8C122.4 34.8 122.4 34.9 122.3 34.9C122 34.9 121.8 34.7 121.7 34.6C121.7 34.6 121.6 34.5 121.6 34.4C121.7 33.3 122.5 33 122.8 32.9C122.9 32.9 122.9 32.9 123 32.9C123.3 33.3 124.2 33.4 124.7 33.4C124.8 33.4 125 33.5 125 33.6C124.7 34.6 124.4 34.9 124.3 35ZM125.1 33.1C125 33.1 124.8 32.9 124.3 32.9C123.3 32.8 123.2 32.2 123.2 31.9C123.2 31.4 123.5 31.1 123.7 31C123.7 31 123.8 31.3 124 31.5C123.9 31.6 123.7 31.7 123.7 31.9C123.7 32 123.7 32.3 124.3 32.3C124.5 32.3 125.2 32.4 125.5 32.7C125.2 32.9 125.1 33.1 125.1 33.1ZM126.9 34.6C126.4 34.6 125.3 34.7 125.4 33.6C125.4 33.2 125.7 33 126.2 33C126.8 33 127.4 33.2 127.4 33.2C128 33.4 128.7 33.9 129.2 34.7C129.1 34.6 127.4 34.6 126.9 34.6ZM124.9 21.1C125.1 21.1 125.4 21.1 125.7 21.1C127.3 21.2 129.1 21.7 130.2 22.9C130.4 23.1 130.5 23.2 130.6 23.4C130.7 23.5 131 24 131.1 24.1C131.2 24.3 131.3 24.5 131.4 24.7C131.4 24.7 131.3 24.7 131.3 24.8C131.1 24.9 130.6 25.4 129.8 25.4C129.8 25.4 128.7 25.4 127.6 24.3C127.1 23.8 126.6 23.3 126.2 22.8C125.9 22.5 125.7 22.3 125.5 22.1C125.1 21.7 124.7 21.4 124.3 21.2C124.5 21.1 124.7 21.1 124.9 21.1ZM122.3 21.4C122.6 21.3 122.9 21.3 123.2 21.2C123.8 21.5 124.5 21.8 125.1 22.4C125.3 22.6 125.5 22.8 125.8 23.1C126.2 23.6 126.7 24.1 127.3 24.6C128.6 25.8 129.8 25.9 129.9 25.9C130.8 25.9 131.5 25.4 131.7 25.2C131.8 25.3 131.8 25.5 131.9 25.6C131.5 25.9 130.8 26.3 129.9 26.3C129.7 26.3 128.4 26.2 127 24.9C126.4 24.4 125.9 23.8 125.5 23.3C125.3 23 125 22.8 124.9 22.6C123.9 22 123 21.6 122.3 21.4ZM120.2 22C120.4 21.9 120.5 21.9 120.7 21.9C121.1 21.8 121.4 21.9 121.7 21.9C122 22 122.2 22 122.4 22.1C123 22.3 123.8 22.7 124.4 23.3C124.6 23.5 124.8 23.7 125 24C125.4 24.5 126 25.1 126.6 25.6C127.8 26.8 129.1 27.2 129.9 27.2C130.9 27.2 131.7 26.8 132.2 26.5C132.4 26.8 132.7 27.4 132.9 28.1C133.2 29.4 133.1 31.2 132.3 32.2C131.7 32.8 131.1 32.8 130.9 32.7C130.8 32.7 130.8 32.6 130.9 32.6C131.2 32.4 131.5 32.2 131.6 32L131.7 31.9C132.5 30.9 132.3 29.6 132.3 29.2C132.3 29.1 132.1 29 132 29C131.9 29 131.8 29.2 131.8 29.3C131.9 29.6 132 30.7 131.3 31.6C130.6 32.4 129.3 32.9 127.4 32.9C127.4 32.9 127.4 32.9 127.3 32.9C127.2 32.9 127.1 32.9 127 32.9C125.4 32.8 124.6 32 124.3 31.5C123.9 30.9 123.7 30.3 123.8 29.7C124.1 28.5 125.4 27.9 125.4 27.9C125.5 27.8 125.6 27.7 125.5 27.6C125.5 27.5 125.3 27.4 125.2 27.5C125.2 27.5 124.9 27.6 124.6 27.8C124 28.1 123.4 28.7 123.1 29.7C122.8 30.7 122.5 31.7 121.2 31.5C120.6 31.3 119.7 31 119.7 29.9C120 27.4 119.2 24 119.2 23.8C119.1 22.7 119.6 22.2 120.2 22ZM119.3 27.3C119.3 27.6 119.4 28.2 119.4 28.4C119.4 28.7 119.3 29.1 118.6 29.1C118 29.1 117.9 28.7 117.9 28.4C117.9 28.2 117.9 28 117.9 27.5C117.9 27 118.3 26.7 118.7 26.7C118.9 26.7 119.2 26.8 119.3 27.3ZM118.8 24.1C119 24.5 119.1 25.1 119.1 25.4C119.1 25.8 119.1 26 118.5 26.2C117.9 26.3 117.7 25.9 117.6 25.7C117.5 25.5 117.4 25.1 117.3 25C117 24.4 117.3 24 117.7 23.8C118 23.7 118.6 23.6 118.8 24.1ZM113.7 18.2C113.8 18.2 113.9 18.3 114 18.3C114.2 18.6 114.1 19 113.9 19.2C113.6 19.5 113.1 19.5 112.9 19.3C113 19.6 113 19.9 112.7 20.1C112.4 20.3 112.1 20.3 111.8 20C111.9 20.3 111.8 20.6 111.5 20.8C111.2 21 110.9 20.9 110.7 20.7C110.8 21 110.7 21.3 110.4 21.4C110.1 21.5 109.8 21.5 109.6 21.3C109.6 21.5 109.6 21.8 109.2 21.9C108.9 22 108.5 22 108.4 21.8C108.4 22 108.2 22.3 107.9 22.3C107.5 22.4 107.2 22.3 107.2 22.2C107.1 22.2 107 22.3 106.8 22.3C106.8 22.3 106.8 22.4 106.8 22.5C107 22.5 107.1 22.6 107.1 22.8C107.1 23 107 23.1 106.8 23.1C106.6 23.1 106.5 23 106.5 22.8C106.5 22.7 106.6 22.6 106.6 22.5C106.6 22.4 106.6 22.4 106.6 22.3C106.4 22.4 106.2 22.4 105.9 22.5C105.9 22.5 105.9 22.6 105.9 22.7C106.1 22.7 106.3 22.9 106.3 23.1C106.3 23.3 106.1 23.5 105.9 23.5C105.7 23.5 105.5 23.3 105.5 23.1C105.5 23 105.6 22.8 105.7 22.8C105.7 22.7 105.7 22.6 105.7 22.6C105.4 22.7 105.2 22.7 104.9 22.7C104.9 22.7 104.9 22.8 104.9 22.9C105.1 22.9 105.3 23.1 105.3 23.3C105.3 23.5 105.1 23.7 104.9 23.7C104.8 23.7 104.8 23.7 104.7 23.7C104.6 23.6 104.4 23.5 104.4 23.3V23.2C104.4 23.2 104.4 23.2 104.4 23.1C104.4 23.1 104.4 23.1 104.4 23L104.5 22.9C104.5 22.8 104.5 22.8 104.5 22.7C104.5 22.7 104.3 22.7 104.3 22.5C104.3 22.4 104.4 22.3 104.5 22.3C105 22.2 106 22.1 107.2 21.7C107.9 21.4 108.8 21.1 109.8 20.6C110.8 20.1 111.9 19.4 112.9 18.5C113.1 18.3 113.3 18.2 113.4 18C113.5 18.2 113.6 18.2 113.7 18.2ZM113 17.9C110.3 20.4 107.3 21.4 105.6 21.8C105.5 21.8 105.3 21.8 105.3 21.6C105.2 21.4 105.4 21.3 105.5 21.3C105.9 21.2 106.3 21.1 106.8 20.8C106.9 20.7 107 20.6 106.9 20.5C106.8 20.4 106.7 20.3 106.6 20.4C106.4 20.5 106.1 20.6 105.9 20.7C105.3 20.9 104.8 20.7 104.8 20.3C104.8 20 105.6 19.9 105.9 19.9C106 19.9 106 19.9 106.1 19.9C107 19.7 108.1 19.5 108.6 18.7C109.2 17.8 108.7 16.7 108.7 16.7C109.6 16.8 110.3 16.2 110.6 15.9C111.1 16.2 112.2 17.3 113 17.9ZM110.9 11C110.8 11.2 110.6 11.6 110.2 12.2C109.4 13.3 108.1 13.7 107.6 13.1C106.4 11.4 110.9 11 110.9 11ZM103.8 19.5C103.4 19.5 103.2 19.3 103.2 19.3C103 19.1 103.2 18.9 103.3 18.8C103.4 18.7 103.7 18.5 103.5 18.2C103.1 17.8 102.8 18.3 102.8 18.4C102.7 18.6 102.7 19 102.1 19.3C101.8 19.5 101.2 19.6 100.8 19.3C100.6 19.1 100.4 18.9 100.3 18.7C100.1 18.3 99.9998 18 99.9998 17.7C99.9998 17.3 100.1 16.9 100.6 16.7C101.1 16.5 101.2 16.7 101.3 16.5C101.4 16.4 101.4 16.3 101.4 16.2C101.5 15.8 102.4 15.4 102.8 14.8C103.1 14.4 103.5 14 103.8 13.6C104.5 12.6 105.2 12.4 105.4 12.4C105.4 12.4 106.2 12.3 106.6 12.7C107 13.1 107.1 13.8 106.8 14.3C106.6 14.8 106.7 14.9 106.8 15C106.9 15.1 107.3 15.4 107.7 14.7C107.7 14.7 108.5 13.6 109.9 13.3C110 13.3 110.6 13.2 111.3 13.4C111.2 13.6 111.1 13.8 111 14C110.9 14.2 110.8 14.3 110.8 14.5C110.7 14.7 110.7 14.9 110.5 15.1C110.4 15.2 109.9 15.9 109.1 15.9C108.7 15.9 108.9 15.3 109 15.1C109.1 14.9 110 14.3 110.1 14.2C110.2 14.1 110.2 14 109.9 14.1C109.6 14.2 109.4 14 109 14.3C108.6 14.5 108.8 14.9 108.8 14.9C108.8 14.9 108.4 15.2 108.1 15.4C107.8 15.6 108.1 16 108.2 16.2C108.3 16.4 108.9 17.4 108.4 18.2C108 18.8 107.1 19 106.2 19.2C105.9 19.3 105.4 19.2 105.1 19.2C104.6 19.3 104.2 19.5 103.8 19.5ZM104 24.3C104.6 24.3 106.2 24.1 108.1 23.4C110.1 22.7 112.8 21.7 114.9 19.1C114.9 19.1 114.9 19 115 19C115.2 18.8 115.8 18.1 116.6 17.9C117 17.9 117.5 17.9 117.8 18.1C118.3 18.5 118.5 19.1 118.3 20C118.2 20.5 117.5 20.9 117 20.9C116.4 20.9 116.1 20.5 116.1 20.5C116 20.4 115.9 20.3 115.8 20.4C115.7 20.5 115.7 20.6 115.7 20.7C115.7 20.7 115.9 21.3 116.6 21.5C117.2 21.6 117.1 22 117 22C112.9 23.9 109.6 24.7 107.3 25C105.9 25.2 104.9 25.2 104.1 25.2C103.9 25.2 103.7 25 103.7 24.7C103.6 24.5 103.8 24.4 104 24.3ZM115.5 23.1C115.5 23 115.6 23 115.6 23C115.7 23 115.7 23.1 115.7 23.1C115.7 23.1 115.7 23.2 115.7 23.3C116 23.3 116.2 23.5 116.2 23.8C116.2 24.1 116 24.3 115.7 24.3C115.4 24.3 115.2 24.1 115.2 23.8C115.2 23.6 115.3 23.4 115.5 23.3C115.5 23.3 115.5 23.2 115.5 23.1ZM114.2 23.6C114.2 23.5 114.3 23.5 114.3 23.5C114.4 23.5 114.4 23.6 114.4 23.6C114.4 23.6 114.4 23.7 114.4 23.8C114.7 23.8 114.9 24 114.9 24.3C114.9 24.6 114.7 24.8 114.4 24.8C114.1 24.8 113.9 24.6 113.9 24.3C113.9 24.1 114 23.9 114.2 23.8C114.2 23.7 114.2 23.6 114.2 23.6ZM113 23.9C113 23.8 113.1 23.8 113.1 23.8C113.2 23.8 113.2 23.9 113.2 23.9C113.2 23.9 113.2 24 113.2 24.1C113.5 24.1 113.7 24.3 113.7 24.6C113.7 24.9 113.5 25.1 113.2 25.1C112.9 25.1 112.7 24.9 112.7 24.6C112.7 24.4 112.8 24.2 113 24.1C112.9 24.1 113 24 113 23.9ZM111.8 24.3C111.8 24.2 111.9 24.2 111.9 24.2C112 24.2 112 24.3 112 24.3C112 24.3 112 24.4 112 24.5C112.3 24.5 112.5 24.7 112.5 25C112.5 25.3 112.3 25.5 112 25.5C111.7 25.5 111.5 25.3 111.5 25C111.5 24.8 111.6 24.6 111.8 24.5C111.7 24.5 111.8 24.4 111.8 24.3ZM110.5 24.8C110.5 24.7 110.6 24.7 110.7 24.7C110.8 24.7 110.8 24.8 110.8 24.8C110.8 24.8 110.8 24.9 110.8 25C111.1 25 111.3 25.2 111.3 25.5C111.3 25.8 111.1 26 110.8 26C110.5 26 110.3 25.8 110.3 25.5C110.3 25.3 110.4 25.1 110.6 25C110.4 24.9 110.5 24.8 110.5 24.8ZM109.2 25C109.2 24.9 109.3 24.9 109.3 24.9C109.4 24.9 109.4 25 109.4 25.1C109.4 25.1 109.4 25.2 109.4 25.3C109.7 25.3 109.9 25.5 109.9 25.8C109.9 26.1 109.7 26.3 109.4 26.3C109.1 26.3 108.9 26.1 108.9 25.8C108.9 25.6 109 25.4 109.2 25.3C109.1 25.2 109.2 25 109.2 25ZM107.9 25.3C107.9 25.2 108 25.2 108 25.2C108.1 25.2 108.1 25.3 108.1 25.4C108.1 25.4 108.1 25.5 108.1 25.6C108.4 25.6 108.6 25.8 108.6 26.1C108.6 26.4 108.4 26.6 108.1 26.6C107.8 26.6 107.6 26.4 107.6 26.1C107.6 25.9 107.7 25.7 107.9 25.6C107.8 25.4 107.9 25.3 107.9 25.3ZM106.7 25.5C106.7 25.4 106.8 25.4 106.8 25.4C106.9 25.4 106.9 25.5 106.9 25.5C106.9 25.5 106.9 25.6 106.9 25.7C107.2 25.7 107.4 25.9 107.4 26.2C107.4 26.5 107.2 26.7 106.9 26.7C106.6 26.7 106.4 26.5 106.4 26.2C106.4 26 106.5 25.8 106.7 25.7V25.5ZM105.5 25.6C105.5 25.5 105.6 25.5 105.6 25.5C105.7 25.5 105.7 25.6 105.7 25.7C105.7 25.7 105.7 25.8 105.7 25.9C106 25.9 106.2 26.1 106.2 26.4C106.2 26.7 106 26.9 105.7 26.9C105.4 26.9 105.2 26.7 105.2 26.4C105.2 26.2 105.3 26 105.5 25.9C105.5 25.8 105.5 25.6 105.5 25.6ZM104.3 25.7C104.3 25.6 104.4 25.6 104.5 25.6C104.5 25.6 104.6 25.7 104.5 25.7C104.5 25.7 104.5 25.8 104.5 25.9C104.8 25.9 105 26.1 105 26.4C105 26.7 104.8 26.9 104.5 26.9C104.2 26.9 104 26.7 104 26.4C104 26.2 104.1 26 104.3 25.9C104.2 25.9 104.3 25.7 104.3 25.7ZM97.4998 33.8C97.5998 33.5 97.6998 33.1 97.8998 32.8C98.0998 32.5 98.0998 32.3 97.9998 32.2C97.9998 32.1 97.8998 32.1 97.8998 32C97.8998 31.9 97.9998 31.8 97.9998 31.7C98.7998 31.3 98.6998 30.7 98.5998 30.5C98.4998 30.2 98.7998 29.4 98.7998 29.4C99.3998 27.6 100.2 27 100.8 26.8C101.7 26.4 103.3 27.6 103.4 27.7C103.9 28 105.4 29 105.8 29.2C106 29.4 106.4 29.7 106.7 29.8C106.8 29.8 106.8 29.9 106.9 29.9C107.6 30.4 108.3 30.7 108.4 30.4C108.6 30.1 107.3 29.1 106.8 28.4C106.3 27.8 106.3 27.7 106.3 27.4C106.3 27.2 106.5 26.9 106.5 26.9C106.5 26.9 106.7 27.3 107.2 27.2C107.6 27.1 107.7 26.8 107.7 26.8C107.7 26.8 108 27.1 108.4 26.9C108.9 26.8 108.9 26.4 108.9 26.4C108.9 26.4 109.1 26.8 109.7 26.6C110.2 26.5 110.2 26.1 110.2 26.1C110.2 26.1 110.5 26.5 111 26.4C111.5 26.3 111.5 25.8 111.5 25.8C111.5 25.8 111.8 26.2 112.3 26C112.8 25.9 112.8 25.5 112.8 25.5C112.8 25.5 113 25.8 113.5 25.7C114 25.6 114 25.1 114 25.1C114 25.1 114.3 25.5 114.9 25.3C115.2 25.2 115.3 24.8 115.3 24.8C115.3 24.8 115.6 25.1 116.1 25C116.4 24.9 116.5 24.8 116.7 24.6C116.9 24.8 118 26.6 117.4 30.1C117.2 31.2 117 32 116.8 32.6C116.7 32.9 116.5 33.1 116 33.4C115.2 34 113.3 33.8 112.4 33.8C112.3 33.8 112.3 33.8 112.2 33.8C110.7 33.6 111.1 31.7 111.6 31.2C112.1 30.7 112.7 29.7 112.8 29.3C113 28.7 112.8 28.6 112.6 28.6C112.4 28.6 112.4 28.7 112.3 29.1C112.2 29.4 111.5 30.6 110.5 31.3C110 31.6 109.7 32 109.6 32.4C109.3 32.9 109.4 33.1 109.3 33.4C109.2 33.8 108.7 34.5 107.6 34.3C107.2 34.2 106.9 34.1 106.7 33.9C106 33.1 106.7 32.2 106.9 31.9C107 31.8 107 31.8 106.9 31.8C105.9 31.5 105.5 32.3 105.3 32.7C105.2 32.9 105.1 33 105 32.9C104.6 32.5 105.1 31.6 105.3 31.2C105.5 30.8 105.5 30.5 104.7 30.7C104.1 30.9 103.8 31 103.1 30.7C102.5 30.5 101.8 29.8 102.3 28.7C102.4 28.5 102.5 28.2 102.5 28.1C102.5 27.7 102.2 27.7 102 27.9C101.7 28.2 101.5 28.4 101.3 28.7C101.1 29 100.7 29.5 100.2 29.3C99.7998 29.1 99.5998 29 99.4998 29.2C99.3998 29.4 99.6998 29.7 100.1 30.1C100.8 30.6 100.6 31.8 99.6998 31.8C98.8998 31.8 98.4998 31.8 98.4998 32.1C98.4998 32.3 98.5998 32.4 98.7998 32.5C98.9998 32.6 99.2998 32.7 99.0998 34C98.9998 34.4 98.8998 35.1 98.2998 34.9H98.1998C97.9998 34.8 97.9998 34.7 98.0998 34.6C98.1998 34 98.3998 33.6 98.3998 33.6C98.3998 33.5 98.4998 33.3 98.3998 33.2C98.1998 33.1 98.0998 33.3 98.0998 33.4C98.0998 33.4 97.8998 33.7 97.7998 34.2C97.5998 34.2 97.4998 34 97.4998 33.8Z" fill="black"/>
<path fill-rule="evenodd" clip-rule="evenodd" d="M199.8 24.5C199.1 24.3 198.4 24.1 197.8 23.7C197.1 23.3 196.6 22.9 196.1 22.3C195.6 21.8 195.2 21.2 194.9 20.5C194.6 19.8 194.4 19 194.4 18.2C194.4 17.2 194.6 16.3 194.9 15.4C195.3 14.5 195.8 13.7 196.6 13C197.4 12.3 198.3 11.7 199.5 11.3C200.7 10.9 202.1 10.6 203.7 10.6C206.1 10.6 208 10.9 209.4 11.4C210.8 11.9 212 12.6 212.8 13.4C213 13.1 213.3 12.8 213.7 12.5C214.1 12.2 214.5 11.9 215.1 11.6C215.7 11.3 216.3 11.1 217.1 10.9C217.9 10.7 218.8 10.6 219.9 10.6C221.2 10.6 222.2 10.5 223 10.3C223.8 10.1 224.5 9.89999 224.9 9.49999C225.4 9.19999 225.7 8.79999 225.9 8.39999C226.1 7.99999 226.2 7.49999 226.2 6.89999C226.2 5.79999 226 5.09999 225.5 4.59999C225 4.09999 224.5 3.89999 224 3.89999C223.4 3.89999 222.9 3.99999 222.6 4.29999C222.3 4.59999 222.2 4.89999 222.2 5.29999C222.2 5.69999 222.4 6.09999 222.7 6.39999C223.1 6.69999 223.5 6.79999 224.1 6.79999C224.3 6.79999 224.5 6.79999 224.6 6.79999V8.79999C224.2 8.99999 223.7 9.19999 223.1 9.29999C222.5 9.39999 222 9.49999 221.4 9.49999C219.9 9.49999 218.7 9.19999 217.6 8.49999C216.6 7.79999 216.1 6.89999 216.1 5.59999C216.1 4.29999 216.8 3.09999 218.1 2.19999C219.4 1.19999 221.3 0.799988 223.7 0.799988C224.8 0.799988 225.9 0.999989 226.9 1.19999C227.9 1.49999 228.8 1.89999 229.5 2.49999C230.2 2.99999 230.8 3.69999 231.2 4.49999C231.6 5.29999 231.8 6.09999 231.8 7.09999C231.8 8.69999 231.4 9.99999 230.5 11C229.6 12 228.5 12.6 227.1 13C228.8 14.1 230 15.6 230.7 17.6C231.4 19.6 231.8 22 231.8 24.7C231.8 29 230.9 32.4 229.1 34.8C227.3 37.2 224.7 38.4 221.1 38.4C219.8 38.4 218.5 38.2 217.4 37.8C216.3 37.4 215.3 36.9 214.5 36.2C213.7 35.5 213 34.6 212.6 33.6C212.1 32.6 211.9 31.5 211.9 30.2C211.9 28.9 212.1 27.8 212.5 26.8C212.9 25.8 213.4 25 214.1 24.3C214.8 23.6 215.6 23.1 216.6 22.8C217.5 22.5 218.6 22.3 219.7 22.3C220.3 22.3 220.8 22.3 221.4 22.4C222 22.5 222.5 22.6 223 22.7V25.6H222.8C221.6 25.6 220.7 26 220.1 26.9C219.5 27.7 219.2 28.8 219.2 30.2C219.2 31.1 219.3 31.8 219.4 32.4C219.6 33 219.7 33.4 220 33.8C220.2 34.1 220.5 34.4 220.8 34.5C221.1 34.6 221.3 34.7 221.6 34.7C222 34.7 222.4 34.6 222.7 34.3C223 34 223.3 33.5 223.6 32.8C223.8 32.1 224 31.1 224.2 29.8C224.3 28.5 224.4 26.9 224.4 24.9C224.4 22.9 224.3 21.2 224.1 19.9C223.9 18.6 223.6 17.5 223.1 16.7C222.7 15.9 222.2 15.3 221.7 15C221.1 14.7 220.5 14.5 219.9 14.5C218.9 14.5 218 14.9 217.4 15.7C216.8 16.5 216.5 17.8 216.5 19.7V20.7H209V19.7C209 18.5 208.9 17.6 208.7 16.9C208.5 16.2 208.2 15.7 207.9 15.3C207.6 14.9 207.2 14.7 206.8 14.6C206.4 14.5 206 14.4 205.5 14.4C204.4 14.4 203.5 14.8 203 15.5C202.5 16.2 202.2 17.2 202.2 18.4C202.2 19.8 202.6 20.9 203.5 21.8C204.4 22.7 205.8 23.1 207.7 23.1H208.2V26.6H207.7C205.6 26.6 204.2 26.9 203.3 27.6C202.5 28.3 202.1 29.4 202.1 30.9C202.1 32.1 202.5 33.1 203.3 33.7C204.1 34.4 205.2 34.7 206.6 34.7H210.1V37.7C209.4 37.9 208.6 38.1 207.8 38.2C207 38.3 206 38.4 204.9 38.4C203.3 38.4 201.9 38.2 200.6 37.9C199.3 37.6 198.2 37.1 197.3 36.4C196.4 35.8 195.7 35 195.2 34.1C194.7 33.2 194.5 32.2 194.5 31.1C194.5 29.3 195 27.9 195.9 26.9C196.9 25.9 198.2 25.2 200 24.9V24.5H199.8ZM182.2 34.5C182.6 34.5 182.9 34.4 183.3 34.2C183.6 34 183.9 33.5 184.2 32.9C184.5 32.3 184.7 31.4 184.8 30.2C184.9 29.1 185 27.6 185 25.7C185 23.9 184.8 22.3 184.4 20.9C184 19.5 183.4 18.3 182.4 17.3C181.5 16.3 180.2 15.6 178.6 15C177 14.5 175 14.2 172.5 14.2H161.5V14.3C164.2 15.5 166.3 17.3 167.8 19.6C169.3 21.9 170.1 24.6 170.1 27.8C170.1 29.4 169.9 30.8 169.5 32.1C169.1 33.4 168.5 34.5 167.8 35.4C167 36.3 166.1 37 164.9 37.5C163.7 38 162.4 38.2 160.8 38.2C159.7 38.2 158.7 38.1 157.9 37.9C157.1 37.7 156.4 37.4 155.8 37.1C155.2 36.8 154.7 36.4 154.3 36.1C153.9 35.7 153.6 35.3 153.4 35C153.2 35.3 153 35.7 152.6 36.1C152.3 36.5 151.8 36.8 151.3 37.2C150.7 37.5 150 37.8 149.2 38C148.3 38.2 147.3 38.3 146 38.3C144.5 38.3 143.2 38.1 142.1 37.7C140.9 37.3 139.9 36.7 139.1 36C138.3 35.3 137.6 34.4 137.2 33.4C136.8 32.4 136.5 31.3 136.5 30C136.5 28.7 136.7 27.6 137.2 26.6C137.6 25.6 138.2 24.8 139 24.1C139.7 23.4 140.6 22.9 141.6 22.5C142.6 22.1 143.6 21.9 144.8 21.9C145.6 21.9 146.4 22 147 22.1C147.6 22.2 148.1 22.4 148.6 22.6V25.6H147.6C146.6 25.6 145.8 26 145.2 26.8C144.7 27.6 144.4 28.8 144.4 30.2C144.4 31.6 144.6 32.6 145 33.4C145.4 34.1 146 34.5 146.9 34.5C147.9 34.5 148.6 34.1 149 33.3C149.4 32.5 149.6 31.2 149.6 29.3V27.1H157.2V29.3C157.2 31.1 157.4 32.4 157.9 33.3C158.4 34.1 159 34.5 159.8 34.5C160.7 34.5 161.4 33.9 161.9 32.8C162.3 31.7 162.5 30 162.5 27.8C162.5 25.7 162.2 23.9 161.6 22.2C161 20.5 160.1 19.1 158.8 17.9C157.5 16.7 155.9 15.8 153.9 15.2C151.9 14.6 149.4 14.2 146.5 14.2H137V10.7H176.5C179.3 10.7 181.8 11 183.8 11.7C185.9 12.4 187.5 13.4 188.9 14.7C190.2 16 191.2 17.6 191.8 19.4C192.4 21.3 192.8 23.4 192.8 25.7C192.8 27.6 192.6 29.3 192.1 30.8C191.7 32.3 191 33.6 190.1 34.7C189.2 35.8 188.1 36.6 186.7 37.2C185.3 37.8 183.8 38.1 181.9 38.1C180.3 38.1 178.9 37.9 177.7 37.5C176.5 37.1 175.5 36.6 174.6 35.9C173.8 35.2 173.1 34.4 172.7 33.5C172.3 32.6 172.1 31.5 172.1 30.4C172.1 29.3 172.3 28.3 172.7 27.5C173.1 26.6 173.6 25.9 174.2 25.2C174.8 24.6 175.6 24.1 176.5 23.8C177.4 23.5 178.4 23.3 179.5 23.3C180.1 23.3 180.7 23.3 181.3 23.5C181.9 23.6 182.5 23.8 183 24V26.7H182.2C181.5 26.7 180.9 27 180.3 27.5C179.8 28 179.5 29 179.5 30.4C179.5 31.7 179.7 32.7 180.2 33.4C181 34.1 181.5 34.5 182.2 34.5ZM47.6999 34.5C48.6999 34.5 49.5999 34.1 50.0999 33.2C50.6999 32.4 50.9999 31 50.9999 29V27.3H58.5999V29.1C58.5999 31.2 58.7999 32.6 59.2999 33.4C59.7999 34.2 60.3999 34.5 61.2999 34.5C61.8999 34.5 62.4999 34.2 62.8999 33.6C63.3999 33 63.5999 31.9 63.5999 30.2C63.5999 28.5 63.2999 27.4 62.6999 26.9C62.0999 26.4 61.1999 26.1 60.0999 26.1H59.3999V22.7C59.9999 22.5 60.4999 22.4 60.9999 22.3C61.4999 22.2 61.9999 22.2 62.5999 22.2C63.7999 22.2 64.9999 22.3 65.9999 22.6C67.0999 22.9 67.9999 23.3 68.7999 24C69.5999 24.6 70.1999 25.4 70.6999 26.4C71.1999 27.4 71.3999 28.6 71.3999 30C71.3999 31.2 71.1999 32.3 70.7999 33.3C70.3999 34.3 69.7999 35.1 68.9999 35.9C68.1999 36.6 67.2999 37.2 66.1999 37.6C65.0999 38 63.7999 38.2 62.3999 38.2C61.2999 38.2 60.2999 38.1 59.4999 37.9C58.6999 37.7 57.9999 37.4 57.3999 37.1C56.7999 36.8 56.2999 36.5 55.8999 36.1C55.4999 35.8 55.1999 35.4 54.9999 35.1C54.6999 35.5 54.3999 35.8 53.9999 36.2C53.5999 36.6 53.0999 36.9 52.5999 37.2C51.9999 37.5 51.2999 37.7 50.3999 37.9C49.4999 38.1 48.4999 38.2 47.1999 38.2C44.2999 38.2 41.9999 37.6 40.3999 36.3C38.7999 35 37.9999 33.3 37.9999 31.3C37.9999 30.3 38.2999 29.3 38.7999 28.4C39.2999 27.4 39.9999 26.5 40.6999 25.6C41.4999 24.7 42.2999 23.8 43.2999 23C44.1999 22.1 45.0999 21.3 45.8999 20.5C46.6999 19.7 47.2999 18.9 47.8999 18.1C48.3999 17.3 48.6999 16.6 48.6999 15.9C48.6999 15.3 48.4999 14.9 48.1999 14.6C47.8999 14.3 47.4999 14.2 46.9999 14.2C46.3999 14.2 45.9999 14.4 45.6999 14.7C45.3999 15 45.1999 15.6 45.1999 16.4V19.4H39.1999C38.8999 19.1 38.6999 18.8 38.4999 18.3C38.0999 17.6 37.9999 17 37.9999 16.4C37.9999 15.7 38.1999 14.9 38.4999 14.2C38.7999 13.5 39.2999 12.8 39.9999 12.3C40.6999 11.7 41.5999 11.3 42.5999 10.9C43.6999 10.6 44.8999 10.4 46.3999 10.4C48.1999 10.4 49.7999 10.7 50.9999 11.2C52.2999 11.7 53.1999 12.5 53.8999 13.4C54.1999 13.8 54.5999 14.2 55.0999 14.8C55.5999 15.3 56.1999 15.8 56.8999 16.2C57.5999 16.7 58.1999 17 58.9999 17.4C59.7999 17.7 60.4999 17.9 61.1999 17.9C62.0999 17.9 62.7999 17.7 63.1999 17.4C63.5999 17.1 63.7999 16.6 63.7999 16C63.7999 14.9 62.9999 14.3 61.4999 14.3H59.0999V10.8H77.6999C80.4999 10.8 82.9999 11.1 84.9999 11.8C86.9999 12.5 88.6999 13.5 90.0999 14.8C91.3999 16.1 92.3999 17.7 93.0999 19.5C93.6999 21.4 93.9999 23.5 93.9999 25.8C93.9999 27.7 93.7999 29.4 93.2999 30.9C92.8999 32.4 92.1999 33.7 91.2999 34.8C90.3999 35.9 89.2999 36.7 87.8999 37.3C86.4999 37.9 84.9999 38.2 83.0999 38.2C81.4999 38.2 80.0999 38 78.8999 37.6C77.6999 37.2 76.6999 36.7 75.7999 36C74.9999 35.3 74.2999 34.5 73.8999 33.6C73.4999 32.7 73.2999 31.6 73.2999 30.5C73.2999 29.4 73.4999 28.4 73.8999 27.6C74.2999 26.7 74.7999 26 75.3999 25.3C76.0999 24.7 76.7999 24.2 77.6999 23.9C78.5999 23.6 79.5999 23.4 80.6999 23.4C81.2999 23.4 81.8999 23.5 82.5999 23.6C83.1999 23.7 83.7999 23.9 84.2999 24.1V26.8H83.4999C82.7999 26.8 82.1999 27.1 81.5999 27.6C81.0999 28.1 80.7999 29.1 80.7999 30.5C80.7999 31.8 81.0999 32.8 81.5999 33.5C82.0999 34.1 82.6999 34.4 83.2999 34.4C83.6999 34.4 83.9999 34.3 84.3999 34.1C84.6999 33.9 84.9999 33.4 85.2999 32.8C85.5999 32.1 85.7999 31.3 85.8999 30.1C85.9999 29 86.0999 27.5 86.0999 25.7C86.0999 23.9 85.8999 22.3 85.4999 20.9C85.0999 19.5 84.4999 18.3 83.5999 17.3C82.6999 16.3 81.3999 15.6 79.7999 15C78.1999 14.5 76.1999 14.2 73.6999 14.2H69.5999C69.8999 14.7 69.9999 15.3 69.9999 16C69.9999 16.6 69.8999 17.3 69.5999 17.9C69.3999 18.5 68.9999 19.1 68.3999 19.5C67.7999 20 67.0999 20.3 66.1999 20.6C65.2999 20.9 64.1999 21 62.8999 21C61.1999 21 59.5999 20.8 58.1999 20.5C56.7999 20.1 55.4999 19.7 54.1999 19.1C53.6999 20.3 52.8999 21.5 51.8999 22.7L49.0999 26C47.9999 27.1 47.0999 28.2 46.2999 29.2C45.4999 30.2 45.0999 31.2 45.0999 32.1C45.0999 32.7 45.2999 33.3 45.6999 33.8C46.0999 34.3 46.7999 34.5 47.6999 34.5ZM14.4999 20.4C14.4999 19.3 14.8999 18.3 15.6999 17.6C16.4999 16.9 17.4999 16.5 18.6999 16.5C19.8999 16.5 20.8999 16.8 21.6999 17.6C22.4999 18.3 22.8999 19.2 22.8999 20.4C22.8999 21.5 22.4999 22.5 21.6999 23.2C20.8999 23.9 19.8999 24.3 18.6999 24.3C17.4999 24.3 16.4999 23.9 15.6999 23.2C14.8999 22.5 14.4999 21.6 14.4999 20.4ZM19.0999 41.1C22.0999 41.1 24.9999 40.8 27.7999 40.3C30.5999 39.8 33.1999 38.9 35.4999 37.6L36.9999 39.7C34.8999 41.6 32.1999 43.1 29.0999 44C25.9999 44.9 22.5999 45.4 19.1999 45.4C17.3999 45.4 15.6999 45.3 13.9999 45.1C12.2999 44.9 10.5999 44.5 8.9999 44C7.3999 43.5 5.8999 42.9 4.5999 42.2C3.1999 41.5 1.9999 40.6 0.899902 39.7L2.6999 37.6C4.9999 38.9 7.5999 39.8 10.4999 40.3C13.2999 40.9 16.1999 41.1 19.0999 41.1ZM18.9999 34.8C18.8999 35 18.6999 35.2 18.3999 35.6C18.0999 36 17.6999 36.3 17.0999 36.7C16.4999 37.1 15.6999 37.4 14.7999 37.7C13.7999 38 12.5999 38.2 11.1999 38.2C9.5999 38.2 8.2999 38 7.0999 37.6C5.8999 37.2 4.8999 36.6 4.0999 35.9C3.2999 35.2 2.6999 34.3 2.2999 33.3C1.8999 32.3 1.6999 31.2 1.6999 30C1.6999 28.8 1.8999 27.7 2.3999 26.8C2.7999 25.9 3.3999 25.1 4.1999 24.4C4.8999 23.8 5.7999 23.3 6.7999 22.9C7.7999 22.6 8.7999 22.4 9.8999 22.4C10.5999 22.4 11.1999 22.4 11.7999 22.5C12.2999 22.6 12.8999 22.8 13.4999 23V26.1H12.5999C11.5999 26.1 10.7999 26.5 10.2999 27.2C9.6999 27.9 9.4999 28.9 9.4999 30.1C9.4999 31.6 9.7999 32.7 10.3999 33.4C10.9999 34.1 11.6999 34.4 12.5999 34.4C13.5999 34.4 14.2999 34 14.7999 33.2C15.2999 32.4 15.4999 31 15.4999 29V27H22.9999V29C22.9999 31 23.2999 32.3 23.7999 33.2C24.2999 34 24.9999 34.4 25.9999 34.4C26.8999 34.4 27.5999 33.8 28.0999 32.7C28.5999 31.6 28.8999 30.1 28.8999 28.2C28.8999 25.7 28.5999 23.8 27.9999 22.5C27.3999 21.1 26.2999 20.4 24.5999 20.4H24.4999V17.3C24.8999 17.2 25.3999 17.1 25.7999 17C26.2999 17 26.6999 16.9 27.1999 16.9C28.3999 16.9 29.4999 17.1 30.5999 17.5C31.6999 17.9 32.6999 18.5 33.5999 19.4C34.4999 20.3 35.1999 21.4 35.6999 22.8C36.1999 24.2 36.4999 25.8 36.4999 27.7C36.4999 29.1 36.2999 30.4 35.8999 31.7C35.4999 32.9 34.7999 34 33.9999 35C33.1999 35.9 32.0999 36.7 30.8999 37.3C29.6999 37.8 28.1999 38.1 26.5999 38.1C25.3999 38.1 24.3999 38 23.4999 37.7C22.5999 37.4 21.8999 37.1 21.2999 36.8C20.6999 36.5 20.1999 36.1 19.8999 35.7C19.4999 35.4 19.1999 35 18.9999 34.8ZM36.4999 6.49999C36.4999 6.59999 36.4999 6.69999 36.4999 6.89999C36.4999 6.99999 36.4999 7.19999 36.4999 7.29999C36.4999 7.49999 36.4999 7.59999 36.4999 7.89999C36.4999 8.69999 36.3999 9.49999 36.0999 10.3C35.7999 11.1 35.2999 11.7 34.6999 12.3C33.9999 12.9 33.1999 13.4 32.0999 13.7C30.9999 14.1 29.6999 14.2 28.1999 14.2H2.1999V10.7H25.8999C26.8999 10.7 27.6999 10.5 28.2999 10.2C28.7999 9.79999 29.0999 9.19999 29.0999 8.39999V6.59999H36.4999V6.49999Z" fill="black"/>
<path d="M160.8 44.8H161.2C161.4 44.8 161.6 44.8 161.8 44.7C162 44.6 162.1 44.6 162.2 44.5C162.3 44.4 162.4 44.3 162.4 44.1C162.5 44 162.5 43.8 162.5 43.7V43.6C162.5 43.6 162.5 43.6 162.5 43.5C162.5 43.5 162.5 43.5 162.5 43.4H161.7V43.6C161.7 43.8 161.6 43.9 161.5 44C161.4 44.1 161.2 44.2 160.9 44.2H157.1V44.7H158.6C159.1 44.7 159.6 44.8 160 44.9C160.4 45 160.7 45.2 160.9 45.5C161.1 45.7 161.3 46 161.4 46.4C161.5 46.7 161.6 47.1 161.6 47.5C161.6 48 161.5 48.3 161.4 48.6C161.3 48.9 161.1 49 160.8 49C160.6 49 160.4 48.9 160.3 48.7C160.2 48.5 160.1 48.2 160.1 47.9V47.5H159.3V47.9C159.3 48.3 159.2 48.5 159.1 48.7C158.9 48.9 158.8 49 158.5 49C158.2 49 158.1 48.9 157.9 48.7C157.8 48.5 157.7 48.3 157.7 48C157.7 47.7 157.8 47.5 157.9 47.3C158 47.1 158.2 47 158.5 47H158.7V46.6C158.7 46.6 158.6 46.6 158.5 46.5C158.4 46.5 158.3 46.5 158.2 46.5C158 46.5 157.8 46.5 157.6 46.6C157.4 46.7 157.3 46.8 157.2 46.9C157.1 47 157 47.2 156.9 47.4C156.8 47.6 156.8 47.8 156.8 48C156.8 48.2 156.8 48.4 156.9 48.6C157 48.8 157.1 48.9 157.2 49.1C157.3 49.3 157.5 49.3 157.7 49.4C157.9 49.5 158.1 49.5 158.3 49.5C158.5 49.5 158.7 49.5 158.8 49.4C159 49.3 159.1 49.3 159.2 49.2C159.3 49.1 159.4 49.1 159.4 49C159.5 48.9 159.5 48.8 159.5 48.8C159.5 48.9 159.6 49 159.6 49C159.7 49.1 159.7 49.2 159.8 49.2C159.9 49.3 160 49.3 160.1 49.4C160.2 49.5 160.4 49.5 160.6 49.5C161.1 49.5 161.4 49.3 161.7 49C161.8 49.2 162 49.3 162.2 49.4C162.4 49.5 162.6 49.5 162.9 49.5C163.2 49.5 163.4 49.4 163.7 49.3C163.9 49.2 164.1 49 164.3 48.8C164.5 48.6 164.6 48.3 164.7 48C164.8 47.7 164.8 47.3 164.8 46.9C164.8 46.5 164.8 46.2 164.7 45.9C164.6 45.6 164.5 45.3 164.4 45.1C164.2 44.9 164.1 44.7 163.8 44.6C163.6 44.5 163.3 44.4 163 44.4C162.9 44.4 162.9 44.4 162.8 44.4C162.7 44.4 162.7 44.4 162.7 44.4V44.9H162.9C163.1 44.9 163.3 45 163.5 45.1C163.7 45.2 163.8 45.4 163.9 45.5C164 45.7 164.1 45.9 164.1 46.2C164.1 46.5 164.2 46.7 164.2 47C164.2 47.7 164.1 48.2 163.9 48.5C163.7 48.9 163.5 49 163.1 49C162.9 49 162.7 48.9 162.6 48.8C162.4 48.7 162.3 48.5 162.2 48.2C162.2 48.1 162.2 48 162.2 47.9C162.2 47.8 162.2 47.7 162.2 47.5C162.2 47.2 162.2 46.9 162.1 46.6C162 46.3 161.9 46.1 161.8 45.8C161.7 45.5 161.5 45.4 161.3 45.2C161.3 45.1 161.1 44.9 160.8 44.8ZM157.1 50.7C157 50.6 157 50.4 156.9 50.3C156.8 50.2 156.8 50 156.7 49.9C156.6 49.8 156.6 49.7 156.6 49.5C156.6 49.4 156.6 49.4 156.7 49.3C156.7 49.2 156.8 49.2 156.9 49.2C157 49.2 157 49.2 157.1 49.3V49C157 48.9 156.9 48.9 156.8 48.9C156.6 48.9 156.5 49 156.4 49.1C156.3 49.2 156.2 49.4 156.2 49.5C156.2 49.6 156.2 49.8 156.3 49.9C156.4 50 156.4 50.2 156.5 50.3C156.6 50.4 156.6 50.6 156.7 50.7C156.8 50.8 156.8 51 156.8 51.1C156.8 51.3 156.7 51.5 156.6 51.7C156.4 51.8 156.3 51.9 156 51.9C155.8 51.9 155.7 51.9 155.6 51.8C155.5 51.7 155.5 51.7 155.5 51.6C155.5 51.5 155.5 51.5 155.6 51.4C155.7 51.3 155.8 51.3 155.9 51.2C156 51.1 156.1 51.1 156.2 51C156.3 50.9 156.3 50.8 156.3 50.7C156.3 50.5 156.2 50.4 156.1 50.3C156 50.2 155.8 50.2 155.7 50.2C155.6 50.2 155.6 50.2 155.5 50.2C155.4 50.2 155.4 50.2 155.3 50.2V50.5H155.5C155.6 50.5 155.6 50.5 155.7 50.5V50.6C155.7 50.7 155.7 50.7 155.6 50.8C155.5 50.9 155.4 50.9 155.3 51C155.2 51.1 155.1 51.1 155 51.2C154.9 51.3 154.9 51.4 154.9 51.5C154.9 51.7 155 51.8 155.2 51.9C155.4 52 155.6 52.1 155.9 52.1C156.3 52.1 156.7 52 156.9 51.8C157.1 51.6 157.2 51.3 157.2 51C157.2 51 157.2 50.9 157.1 50.7ZM153.9 48.9C154 49 154 49 154.1 49.1C154.2 49.2 154.3 49.2 154.4 49.3C154.5 49.4 154.7 49.4 154.9 49.4C155.1 49.4 155.3 49.3 155.5 49.2C155.7 49.1 155.8 49 156 48.8C156.1 48.6 156.2 48.4 156.3 48.1C156.4 47.8 156.4 47.5 156.4 47.2C156.4 46.7 156.3 46.2 156.1 45.7C155.9 45.3 155.6 44.9 155.3 44.6C155.5 44.6 155.7 44.5 155.8 44.5C155.9 44.4 156.1 44.4 156.1 44.3C156.2 44.2 156.3 44.1 156.3 44C156.3 43.9 156.4 43.7 156.4 43.6C156.4 43.5 156.4 43.5 156.4 43.4H155.6V43.6C155.6 43.8 155.5 43.9 155.4 44C155.3 44.1 155.1 44.2 154.8 44.2H151V44.7H152.1C151.7 45 151.5 45.3 151.3 45.8C151.1 46.2 151 46.7 151 47.3C151 47.6 151 47.9 151.1 48.2C151.2 48.5 151.3 48.7 151.4 48.9C151.5 49.1 151.7 49.2 151.9 49.3C152.1 49.4 152.3 49.5 152.6 49.5C152.8 49.5 152.9 49.5 153.1 49.4C153.2 49.3 153.3 49.3 153.4 49.2C153.5 49.1 153.6 49.1 153.6 49C153.7 48.9 153.7 48.9 153.7 48.8C153.8 48.8 153.9 48.9 153.9 48.9ZM154.2 47.4H153.4V47.8C153.4 48.5 153.2 48.9 152.7 48.9C152.5 48.9 152.3 48.7 152.1 48.5C151.9 48.2 151.9 47.8 151.9 47.3C151.9 46.9 151.9 46.6 152 46.3C152.1 46 152.2 45.7 152.3 45.5C152.5 45.3 152.6 45.1 152.9 45C153.1 44.9 153.4 44.8 153.7 44.8C154 44.8 154.3 44.9 154.6 45C154.8 45.1 155 45.3 155.2 45.5C155.4 45.7 155.5 46 155.5 46.3C155.6 46.6 155.6 46.9 155.6 47.3C155.6 47.8 155.5 48.3 155.4 48.5C155.2 48.8 155.1 48.9 154.8 48.9C154.4 48.9 154.1 48.5 154.1 47.8L154.2 47.4ZM153.6 49.5C153.6 49.6 153.5 49.7 153.5 49.8C153.5 49.9 153.4 50.1 153.4 50.2C153.4 50.4 153.4 50.6 153.4 50.8V51H154.2V50.8C154.2 50.6 154.2 50.3 154.2 50.2C154.2 50 154.1 49.9 154.1 49.8C154.1 49.7 154 49.5 154 49.5H153.6ZM148.4 48.7C148.3 48.5 148.2 48.3 148.2 48C148.2 47.7 148.3 47.4 148.4 47.3C148.5 47.2 148.8 47.1 149 47.1H149.3V46.7C149.3 46.7 149.2 46.7 149.1 46.6C149 46.6 148.9 46.6 148.8 46.6C148.3 46.6 148 46.7 147.8 47C147.6 47.3 147.5 47.6 147.5 48C147.5 48.4 147.6 48.7 147.9 49C148.2 49.3 148.5 49.4 149 49.4C150.1 49.4 150.7 48.6 150.7 47C150.7 46.6 150.6 46.2 150.6 45.9C150.5 45.6 150.4 45.3 150.2 45.1C150 44.9 149.7 44.7 149.4 44.6C149.1 44.5 148.7 44.4 148.3 44.4H145V44.9H145.2C145.4 44.9 145.6 45 145.8 45.1C146 45.2 146.1 45.4 146.2 45.5C146.3 45.7 146.4 45.9 146.4 46.2C146.4 46.5 146.5 46.7 146.5 47C146.5 47.7 146.4 48.2 146.2 48.5C146 48.9 145.8 49 145.4 49C145.2 49 145 48.9 144.9 48.8C144.7 48.7 144.6 48.5 144.5 48.2C144.5 48.1 144.5 48 144.5 47.9C144.5 47.8 144.5 47.7 144.5 47.5C144.5 47.2 144.5 46.9 144.4 46.6C144.3 46.3 144.2 46.1 144.1 45.8C144 45.6 143.8 45.4 143.6 45.2C143.4 45 143.2 44.9 142.9 44.8H143.3C143.5 44.8 143.7 44.8 143.9 44.7C144.1 44.6 144.2 44.6 144.3 44.5C144.4 44.4 144.5 44.3 144.5 44.1C144.5 44 144.6 43.8 144.6 43.7V43.6C144.6 43.6 144.6 43.6 144.6 43.5C144.6 43.5 144.6 43.5 144.6 43.4H143.8V43.6C143.8 43.8 143.7 43.9 143.6 44C143.5 44.1 143.3 44.2 143 44.2H139.2V44.7H140.7C141.2 44.7 141.7 44.8 142.1 44.9C142.5 45 142.8 45.2 143 45.5C143.2 45.7 143.4 46 143.5 46.4C143.6 46.7 143.7 47.1 143.7 47.5C143.7 48 143.6 48.3 143.5 48.6C143.4 48.9 143.2 49 142.9 49C142.7 49 142.5 48.9 142.4 48.7C142.3 48.5 142.2 48.2 142.2 47.9V47.5H141.4V47.9C141.4 48.3 141.3 48.5 141.2 48.7C141 48.9 140.9 49 140.6 49C140.3 49 140.2 48.9 140 48.7C139.9 48.5 139.8 48.3 139.8 48C139.8 47.7 139.9 47.5 140 47.3C140.1 47.1 140.3 47 140.6 47H140.8V46.6C140.8 46.6 140.7 46.6 140.6 46.5C140.5 46.5 140.4 46.5 140.3 46.5C140.1 46.5 139.9 46.5 139.7 46.6C139.5 46.7 139.4 46.8 139.3 46.9C139.2 47 139.1 47.2 139 47.4C138.9 47.6 138.9 47.8 138.9 48C138.9 48.2 138.9 48.4 139 48.6C139.1 48.8 139.2 48.9 139.3 49.1C139.4 49.2 139.6 49.3 139.8 49.4C140 49.5 140.2 49.5 140.4 49.5C140.6 49.5 140.8 49.5 140.9 49.4C141.1 49.3 141.2 49.3 141.3 49.2C141.4 49.1 141.5 49.1 141.5 49C141.6 48.9 141.6 48.8 141.6 48.8C141.6 48.9 141.7 49 141.7 49C141.8 49.1 141.8 49.2 141.9 49.2C142 49.3 142.1 49.3 142.2 49.4C142.3 49.5 142.5 49.5 142.7 49.5C143.2 49.5 143.5 49.3 143.8 49C143.9 49.2 144.1 49.3 144.3 49.4C144.5 49.5 144.7 49.5 145 49.5C145.3 49.5 145.5 49.4 145.8 49.3C146 49.2 146.2 49 146.4 48.8C146.6 48.6 146.7 48.3 146.8 48C146.9 47.7 146.9 47.3 146.9 46.9C146.9 46.4 146.8 46 146.7 45.7C146.6 45.3 146.4 45.1 146.1 44.8H147.7C148.1 44.8 148.4 44.9 148.6 44.9C148.9 45 149 45.1 149.2 45.3C149.4 45.5 149.5 45.7 149.5 46C149.6 46.3 149.6 46.6 149.6 47C149.6 47.4 149.6 47.7 149.5 47.9C149.5 48.2 149.4 48.4 149.3 48.5C149.2 48.7 149.1 48.8 149 48.8C148.9 48.9 148.8 48.9 148.6 48.9C148.7 48.9 148.6 48.8 148.4 48.7ZM134.3 50.4C134.5 50.2 134.7 50.1 135 50.1C135.3 50.1 135.6 50.2 135.7 50.4C135.9 50.6 135.9 50.9 135.9 51.2C135.9 51.5 135.9 51.7 135.8 51.8C135.7 51.9 135.6 52 135.5 52C135.4 52 135.3 52 135.3 51.9C135.2 51.8 135.2 51.7 135.2 51.6V51.4H134.6V51.6C134.6 51.9 134.5 52 134.3 52C134.2 52 134.1 51.9 134 51.8C133.9 51.7 133.9 51.5 133.9 51.2C134.1 50.9 134.2 50.6 134.3 50.4ZM135.3 52.2C135.4 52.3 135.6 52.3 135.7 52.3C136 52.3 136.2 52.2 136.4 52C136.6 51.8 136.6 51.6 136.6 51.2C136.6 51 136.6 50.8 136.5 50.6C136.4 50.4 136.3 50.3 136.2 50.1C136.1 50 135.9 49.9 135.7 49.8C135.5 49.7 135.3 49.7 135.1 49.7C134.9 49.7 134.7 49.7 134.5 49.8C134.3 49.9 134.1 50 134 50.1C133.9 50.2 133.8 50.4 133.7 50.6C133.6 50.8 133.6 51 133.6 51.2C133.6 51.5 133.7 51.8 133.8 52C134 52.2 134.2 52.3 134.5 52.3C134.7 52.3 134.8 52.3 134.9 52.2C135 52.1 135.1 52.1 135.1 52C135.1 52.1 135.2 52.1 135.3 52.2ZM133 43.7C133.1 43.6 133.3 43.5 133.6 43.5C133.8 43.5 134 43.5 134.2 43.6C134.4 43.7 134.6 43.8 134.8 43.9C135 44 135.2 44.2 135.3 44.3C135.5 44.5 135.6 44.6 135.7 44.8C135.5 44.7 135.3 44.6 135.1 44.5C134.9 44.4 134.6 44.4 134.4 44.4C134.2 44.4 134 44.4 133.9 44.4C133.7 44.4 133.6 44.5 133.4 44.5C133.2 44.5 133.1 44.4 133 44.3C132.9 44.2 132.8 44.1 132.8 44C132.8 43.9 132.9 43.8 133 43.7ZM132.6 46.3C132.7 46 132.8 45.8 133 45.6C133.2 45.4 133.4 45.2 133.6 45.1C133.8 45 134.1 44.9 134.4 44.9C134.7 44.9 135 45 135.2 45.1C135.4 45.2 135.6 45.4 135.8 45.6C136 45.8 136.1 46.1 136.2 46.3C136.3 46.6 136.3 46.9 136.3 47.2C136.3 47.7 136.2 48.2 136.1 48.4C135.9 48.7 135.8 48.8 135.5 48.8C135.1 48.8 134.8 48.4 134.8 47.7V47.3H134V47.7C134 48.4 133.8 48.8 133.3 48.8C133.1 48.8 132.9 48.6 132.7 48.4C132.5 48.1 132.5 47.7 132.5 47.2C132.5 46.9 132.5 46.6 132.6 46.3ZM136.7 45.7C136.5 45.2 136.2 44.7 135.9 44.3C135.6 43.9 135.2 43.6 134.7 43.4C134.3 43.2 133.8 43 133.3 43C133.1 43 132.9 43 132.7 43.1C132.5 43.2 132.4 43.2 132.3 43.3C132.2 43.4 132.1 43.5 132 43.6C131.9 43.7 131.9 43.8 131.9 44C131.9 44.2 132 44.4 132.1 44.6C132.2 44.8 132.4 44.9 132.6 44.9C132.3 45.1 132 45.5 131.8 45.9C131.6 46.3 131.5 46.8 131.5 47.3C131.5 47.6 131.5 47.9 131.6 48.2C131.7 48.5 131.8 48.7 131.9 48.9C132 49.1 132.2 49.2 132.4 49.3C132.6 49.4 132.8 49.5 133.1 49.5C133.3 49.5 133.4 49.5 133.6 49.4C133.7 49.3 133.8 49.3 133.9 49.2C134 49.1 134.1 49.1 134.1 49C134.2 48.9 134.2 48.9 134.2 48.8C134.2 48.8 134.3 48.9 134.3 49C134.4 49.1 134.4 49.1 134.5 49.2C134.6 49.3 134.7 49.3 134.8 49.4C134.9 49.5 135.1 49.5 135.3 49.5C135.5 49.5 135.7 49.4 135.9 49.3C136.1 49.2 136.3 49.1 136.4 48.9C136.5 48.7 136.6 48.5 136.7 48.2C136.8 47.9 136.8 47.6 136.8 47.3C137 46.7 136.9 46.2 136.7 45.7ZM125.2 46C125.3 46.1 125.4 46.1 125.5 46.1C125.6 46.1 125.7 46 125.8 46C125.9 45.9 125.9 45.8 125.9 45.6C125.9 45.5 125.8 45.3 125.8 45.2C125.7 45.1 125.6 45.1 125.5 45.1C125.4 45.1 125.2 45.2 125.2 45.2C125.1 45.3 125.1 45.4 125.1 45.6C125 45.8 125.1 45.9 125.2 46ZM127.5 43.5V43.7C127.5 43.9 127.4 44 127.3 44.1C127.2 44.2 127 44.3 126.7 44.3H123.2V44.8H126.9C127.1 44.8 127.3 44.8 127.5 44.7C127.7 44.6 127.8 44.6 127.9 44.5C128 44.4 128.1 44.3 128.1 44.1C128.2 44 128.2 43.8 128.2 43.7V43.6C128.2 43.6 128.2 43.6 128.2 43.5C128.2 43.5 128.2 43.5 128.2 43.4L127.5 43.5ZM129.9 48.4C129.7 48.8 129.5 48.9 129.1 48.9C128.9 48.9 128.7 48.8 128.5 48.7C128.3 48.6 128.2 48.4 128.1 48.1C128.1 48 128.1 47.9 128.1 47.8C128.1 47.7 128.1 47.6 128.1 47.4C128.1 47 128.1 46.7 128 46.5C127.9 46.2 127.8 46 127.7 45.9C127.6 45.7 127.4 45.6 127.2 45.5C127 45.4 126.8 45.4 126.7 45.4H126.6C126.5 45.4 126.5 45.4 126.5 45.4V45.8C126.6 45.8 126.8 45.8 126.9 45.9C127 45.9 127.1 46 127.2 46.1C127.3 46.2 127.4 46.4 127.4 46.6C127.5 46.8 127.5 47 127.5 47.3C127.5 47.6 127.5 47.9 127.4 48.1C127.4 48.3 127.3 48.5 127.3 48.6C127.2 48.7 127.2 48.8 127.1 48.8C127 48.8 126.9 48.9 126.9 48.9C126.7 48.9 126.6 48.8 126.5 48.7C126.4 48.6 126.3 48.4 126.2 48.2L126 47.5C125.9 47.2 125.7 46.9 125.5 46.8C125.3 46.6 125 46.5 124.6 46.5C124.2 46.5 123.8 46.6 123.6 46.9C123.3 47.2 123.2 47.5 123.2 47.9C123.2 48.1 123.2 48.3 123.3 48.4C123.4 48.6 123.4 48.7 123.6 48.8C123.8 48.9 123.8 49 124 49.1C124.2 49.2 124.4 49.2 124.6 49.2C124.7 49.2 124.7 49.2 124.8 49.2H124.9V48.8C124.7 48.8 124.5 48.7 124.3 48.6C124.2 48.4 124.1 48.2 124.1 47.9C124.1 47.7 124.1 47.6 124.2 47.5C124.2 47.4 124.3 47.3 124.3 47.2C124.4 47.1 124.4 47.1 124.5 47C124.6 47 124.7 46.9 124.7 46.9C124.9 46.9 125 46.9 125.1 47C125.2 47.1 125.3 47.2 125.3 47.4L125.5 48.2C125.6 48.5 125.7 48.8 126 49C126.2 49.2 126.5 49.3 126.9 49.3C127.4 49.3 127.7 49.1 128 48.8C128.1 49 128.3 49.1 128.5 49.2C128.7 49.3 128.9 49.3 129.2 49.3C129.5 49.3 129.7 49.2 130 49.1C130.2 49 130.4 48.8 130.6 48.6C130.8 48.4 130.9 48.1 131 47.8C131.1 47.5 131.1 47.1 131.1 46.7C131.1 46.3 131.1 46 131 45.7C130.9 45.4 130.8 45.1 130.7 44.9C130.5 44.7 130.4 44.5 130.1 44.4C129.9 44.3 129.6 44.2 129.3 44.2C129.2 44.2 129.2 44.2 129.1 44.2C129 44.2 129 44.2 129 44.2V44.7H129.2C129.4 44.7 129.6 44.8 129.8 44.9C130 45 130.1 45.2 130.2 45.3C130.3 45.5 130.4 45.7 130.4 46C130.4 46.3 130.5 46.5 130.5 46.8C130.2 47.5 130.1 48 129.9 48.4ZM119.8 47.2C120 47 120.2 46.9 120.5 46.9H121V46.4H120.5C120.3 46.4 120.2 46.4 120 46.3C119.9 46.2 119.8 46.2 119.7 46.1C119.6 46 119.6 45.9 119.5 45.8C119.5 45.7 119.5 45.6 119.5 45.4C119.5 45.1 119.6 44.9 119.7 44.8C119.9 44.7 120.1 44.6 120.4 44.6H121.6V44.1H120.1C119.7 44.1 119.3 44.2 119.1 44.4C118.9 44.6 118.7 44.9 118.7 45.3C118.7 45.6 118.8 45.9 119 46.1C119.2 46.3 119.4 46.4 119.7 46.5C119.4 46.6 119.2 46.7 119.1 46.9C118.9 47.1 118.8 47.4 118.8 47.8C118.8 48 118.8 48.2 118.9 48.4C119 48.6 119.1 48.7 119.2 48.8C119.3 48.9 119.5 49 119.6 49.1C119.8 49.2 119.9 49.2 120.1 49.2C120.2 49.2 120.3 49.2 120.3 49.2C120.4 49.2 120.4 49.2 120.4 49.2V48.8H120.3C120.1 48.8 119.9 48.7 119.7 48.6C119.5 48.5 119.5 48.2 119.5 47.9C119.6 47.7 119.7 47.4 119.8 47.2ZM113.9 48.6C113.8 48.4 113.7 48.1 113.7 47.6C113.7 47.2 113.8 46.8 113.9 46.6C114 46.4 114.2 46.3 114.4 46.3C114.6 46.3 114.7 46.3 114.8 46.4H114.9C115.1 46.5 115.2 46.7 115.2 46.9C115.1 47.1 115.1 47.4 115 47.6C115 47.8 114.9 48.1 114.9 48.2C114.8 48.4 114.8 48.6 114.7 48.7C114.6 48.8 114.5 48.9 114.3 48.9C114.2 48.9 114 48.8 113.9 48.6ZM116 48.7C115.9 48.6 115.7 48.4 115.6 48.2C115.7 48 115.7 47.7 115.8 47.5C115.8 47.3 115.9 47 115.9 46.9C116 46.7 116 46.5 116.1 46.4C116.2 46.3 116.3 46.2 116.5 46.2C116.7 46.2 116.9 46.3 117 46.5C117.1 46.7 117.2 47 117.2 47.5C117.2 48 117.1 48.3 117 48.5C116.9 48.7 116.7 48.8 116.5 48.8C116.3 48.9 116.1 48.9 116 48.7ZM113.9 44.8C114.2 44.8 114.4 44.9 114.6 45.1C114.8 45.3 114.9 45.6 114.9 45.9V46C114.7 45.9 114.5 45.9 114.3 45.9C113.9 45.9 113.5 46.1 113.3 46.4C113 46.7 112.9 47.2 112.9 47.7C112.9 48.3 113 48.7 113.3 49C113.6 49.3 113.9 49.5 114.4 49.5C114.7 49.5 114.9 49.4 115.1 49.3C115.3 49.2 115.4 49 115.5 48.9C115.6 49.1 115.8 49.2 115.9 49.3C116.1 49.4 116.3 49.5 116.5 49.5C116.9 49.5 117.3 49.3 117.5 49C117.8 48.7 117.9 48.2 117.9 47.7C117.9 47.1 117.8 46.7 117.5 46.4C117.2 46.1 116.9 45.9 116.5 45.9C116.2 45.9 116 46 115.8 46.1C115.6 46.2 115.5 46.4 115.4 46.5C115.4 46.4 115.5 46.3 115.5 46.2C115.5 46.1 115.5 46 115.5 45.9C115.5 45.6 115.4 45.4 115.4 45.2C115.3 45 115.2 44.9 115.1 44.8H116.7C116.9 44.8 117.1 44.8 117.3 44.7C117.5 44.6 117.6 44.6 117.7 44.5C117.8 44.4 117.9 44.3 117.9 44.1C117.9 44 118 43.8 118 43.7V43.6C118 43.6 118 43.6 118 43.5C118 43.5 118 43.5 118 43.4H117.2V43.6C117.2 43.8 117.1 43.9 117 44C116.9 44.1 116.7 44.2 116.4 44.2H113V44.7H113.9V44.8ZM105.5 46C105.6 46.1 105.7 46.1 105.8 46.1C105.9 46.1 106 46 106.1 46C106.2 45.9 106.2 45.8 106.2 45.6C106.2 45.5 106.1 45.3 106.1 45.2C106 45.1 105.9 45.1 105.8 45.1C105.7 45.1 105.5 45.2 105.5 45.2C105.4 45.3 105.4 45.4 105.4 45.6C105.4 45.8 105.4 45.9 105.5 46ZM108.3 48.9C108.5 48.6 108.7 48.1 108.7 47.4C108.7 47 108.7 46.7 108.6 46.5C108.5 46.2 108.4 46 108.3 45.9C108.2 45.7 108 45.6 107.8 45.5C107.6 45.4 107.4 45.4 107.3 45.4H107.2C107.1 45.4 107.1 45.4 107.1 45.4V45.8C107.2 45.8 107.4 45.8 107.5 45.9C107.6 45.9 107.7 46 107.8 46.1C107.9 46.2 108 46.4 108 46.6C108.1 46.8 108.1 47 108.1 47.3C108.1 47.6 108.1 47.9 108 48.1C108 48.3 107.9 48.5 107.9 48.6C107.8 48.7 107.8 48.8 107.7 48.8C107.6 48.8 107.5 48.9 107.5 48.9C107.3 48.9 107.2 48.8 107.1 48.7C107 48.6 106.9 48.4 106.8 48.2L106.6 47.5C106.5 47.2 106.3 46.9 106.1 46.8C105.9 46.6 105.6 46.5 105.2 46.5C104.8 46.5 104.4 46.6 104.2 46.9C103.9 47.2 103.8 47.5 103.8 47.9C103.8 48.1 103.8 48.3 103.9 48.4C104 48.6 104 48.7 104.2 48.8C104.3 48.9 104.4 49 104.6 49.1C104.8 49.2 105 49.2 105.2 49.2C105.3 49.2 105.3 49.2 105.4 49.2H105.5V48.8C105.3 48.8 105.1 48.7 104.9 48.6C104.8 48.4 104.7 48.2 104.7 47.9C104.7 47.7 104.7 47.6 104.8 47.5C104.8 47.4 104.9 47.3 104.9 47.2C105 47.1 105 47.1 105.1 47C105.2 47 105.3 46.9 105.3 46.9C105.5 46.9 105.6 46.9 105.7 47C105.8 47.1 105.9 47.2 105.9 47.4L106.1 48.2C106.2 48.5 106.3 48.8 106.6 49C106.8 49.2 107.1 49.3 107.5 49.3C107.7 49.4 108 49.2 108.3 48.9ZM110.1 48.7C110 48.5 109.9 48.3 109.9 48C109.9 47.7 110 47.4 110.1 47.3C110.2 47.2 110.5 47.1 110.7 47.1H111V46.7C111 46.7 110.9 46.7 110.8 46.6C110.7 46.6 110.6 46.6 110.5 46.6C110 46.6 109.7 46.7 109.5 47C109.3 47.3 109.2 47.6 109.2 48C109.2 48.4 109.3 48.7 109.6 49C109.9 49.3 110.2 49.4 110.7 49.4C111.8 49.4 112.4 48.6 112.4 47C112.4 46.6 112.3 46.2 112.3 45.9C112.2 45.6 112.1 45.3 111.9 45.1C111.7 44.9 111.4 44.7 111.1 44.6C110.8 44.5 110.4 44.4 110 44.4H103.8V44.9H109.7C110.1 44.9 110.4 45 110.6 45C110.9 45.1 111 45.2 111.2 45.4C111.4 45.6 111.5 45.8 111.5 46.1C111.6 46.4 111.6 46.7 111.6 47.1C111.6 47.5 111.6 47.8 111.5 48C111.5 48.3 111.4 48.5 111.3 48.6C111.2 48.8 111.1 48.9 111 48.9C110.9 49 110.8 49 110.6 49C110.4 48.9 110.3 48.8 110.1 48.7ZM100.7 52.2C100.8 52.3 101 52.3 101.1 52.3C101.4 52.3 101.6 52.2 101.7 52C101.9 51.8 101.9 51.6 101.9 51.3C101.9 51 101.8 50.8 101.7 50.6C101.6 50.4 101.4 50.2 101.2 50.1H102V49.8H100.2V50.2C100.5 50.2 100.8 50.3 101 50.5C101.2 50.7 101.3 51 101.3 51.4C101.3 51.8 101.2 52 101 52.1C100.9 52.1 100.8 52.1 100.8 52C100.7 51.9 100.7 51.8 100.7 51.6V51.4H100.1V51.6C100.1 51.9 99.9999 52.1 99.7999 52.1C99.6999 52.1 99.5999 52.1 99.5999 52C99.4999 51.9 99.4999 51.8 99.4999 51.7C99.4999 51.4 99.5999 51.3 99.7999 51.3H99.9999V51H99.8999C99.7999 51 99.7999 51 99.6999 51C99.4999 51 99.2999 51.1 99.0999 51.2C98.8999 51.3 98.8999 51.5 98.8999 51.7C98.8999 51.9 98.9999 52.1 99.0999 52.2C99.2999 52.4 99.4999 52.4 99.6999 52.4C99.8999 52.4 100.1 52.4 100.2 52.3C100.3 52.2 100.4 52.2 100.4 52.1C100.5 52.1 100.6 52.1 100.7 52.2ZM100.8 48.7C100.7 48.5 100.6 48.3 100.6 48C100.6 47.7 100.7 47.4 100.8 47.3C100.9 47.2 101.1 47.1 101.4 47.1H101.7V46.7C101.7 46.7 101.6 46.7 101.5 46.6C101.4 46.6 101.3 46.6 101.2 46.6C100.7 46.6 100.4 46.7 100.2 47C99.9999 47.3 99.8999 47.6 99.8999 48C99.8999 48.4 99.9999 48.7 100.3 49C100.6 49.3 100.9 49.4 101.4 49.4C102.5 49.4 103.1 48.6 103.1 47C103.1 46.2 102.9 45.5 102.5 45C102.1 44.5 101.5 44.3 100.6 44.3H95.5999V44.8H96.1999C95.9999 44.9 95.7999 45.1 95.6999 45.3C95.5999 45.5 95.5999 45.7 95.5999 46H96.2999V45.8C96.2999 45.6 96.3999 45.4 96.4999 45.2C96.5999 45 96.7999 44.9 96.9999 44.8H97.0999C97.1999 44.9 97.1999 45 97.2999 45.1C97.2999 45.2 97.3999 45.3 97.3999 45.5C97.3999 45.7 97.3999 45.8 97.2999 46C97.1999 46.1 97.0999 46.3 96.9999 46.4C96.8999 46.5 96.6999 46.6 96.5999 46.8C96.3999 46.9 96.2999 47 96.1999 47.2C96.0999 47.3 95.9999 47.5 95.8999 47.7C95.7999 47.9 95.7999 48.1 95.7999 48.3C95.7999 48.5 95.7999 48.7 95.8999 48.8C95.9999 49 96.0999 49.1 96.1999 49.3C96.3999 49.4 96.4999 49.5 96.7999 49.6C96.9999 49.7 97.2999 49.7 97.5999 49.7C98.2999 49.7 98.7999 49.5 99.1999 49C99.5999 48.6 99.6999 47.9 99.6999 47.1C99.6999 46.6 99.5999 46.1 99.4999 45.8C99.2999 45.4 99.0999 45.2 98.7999 45H100.6C101 45 101.3 45.1 101.5 45.1C101.7 45.1 101.9 45.3 102.1 45.5C102.3 45.7 102.4 45.9 102.4 46.2C102.5 46.5 102.5 46.8 102.5 47.2C102.5 47.6 102.5 47.9 102.4 48.1C102.4 48.4 102.3 48.6 102.2 48.7C102.1 48.9 102 49 101.9 49C101.8 49.1 101.7 49.1 101.5 49.1C101.1 48.9 100.9 48.8 100.8 48.7ZM96.3999 47.6C96.4999 47.5 96.5999 47.3 96.6999 47.2C96.7999 47.1 96.9999 47 97.0999 46.9C97.1999 46.8 97.3999 46.7 97.4999 46.5C97.5999 46.4 97.6999 46.2 97.7999 46.1C97.8999 45.9 97.8999 45.7 97.8999 45.5C97.8999 45.3 97.8999 45.2 97.7999 45.1C97.6999 45 97.5999 44.9 97.5999 44.8C97.8999 44.9 98.1999 45.1 98.3999 45.5C98.5999 45.9 98.5999 46.3 98.5999 46.9C98.5999 47.6 98.4999 48.2 98.1999 48.5C97.9999 48.8 97.5999 49 97.1999 49C96.8999 49 96.5999 48.9 96.3999 48.7C96.1999 48.5 96.0999 48.3 96.0999 48.1C96.1999 47.9 96.2999 47.7 96.3999 47.6ZM92.6999 44.9L92.4999 44.5C92.4999 44.7 92.4999 44.9 92.3999 45C92.2999 45.2 92.0999 45.2 91.8999 45.2C91.6999 45.2 91.4999 45.1 91.3999 45C91.2999 44.9 91.1999 44.7 91.1999 44.6C91.1999 44.4 91.2999 44.3 91.3999 44.2C91.4999 44.1 91.6999 44 91.8999 44C92.0999 44 92.3999 44.1 92.5999 44.2C92.7999 44.3 92.9999 44.6 93.1999 44.8C93.3999 45.1 93.4999 45.4 93.5999 45.8C93.6999 46.2 93.7999 46.7 93.7999 47.2C93.7999 47.8 93.6999 48.2 93.5999 48.5C93.4999 48.8 93.2999 48.9 92.9999 48.9C92.7999 48.9 92.5999 48.8 92.4999 48.6C92.3999 48.4 92.2999 48.1 92.2999 47.8V47.4H91.4999V47.8C91.4999 48.2 91.3999 48.4 91.2999 48.6C91.1999 48.8 90.9999 48.9 90.6999 48.9C90.3999 48.9 90.2999 48.8 90.0999 48.6C89.9999 48.4 89.8999 48.2 89.8999 47.9C89.8999 47.6 89.9999 47.4 90.0999 47.2C90.1999 47 90.3999 46.9 90.6999 46.9H90.8999V46.5C90.8999 46.5 90.7999 46.5 90.6999 46.5C90.5999 46.5 90.4999 46.5 90.3999 46.5C90.1999 46.5 89.9999 46.5 89.7999 46.6C89.5999 46.7 89.4999 46.8 89.3999 46.9C89.2999 47 89.1999 47.2 89.0999 47.4C88.9999 47.6 88.9999 47.8 88.9999 48C88.9999 48.2 88.9999 48.4 89.0999 48.6C89.1999 48.8 89.2999 48.9 89.3999 49.1C89.4999 49.2 89.6999 49.3 89.8999 49.4C90.0999 49.5 90.2999 49.5 90.4999 49.5C90.6999 49.5 90.8999 49.5 90.9999 49.4C91.1999 49.3 91.2999 49.3 91.3999 49.2C91.4999 49.1 91.5999 49.1 91.5999 49C91.6999 48.9 91.6999 48.8 91.6999 48.8C91.6999 48.9 91.7999 49 91.7999 49C91.8999 49.1 91.8999 49.2 91.9999 49.2C92.0999 49.2 92.1999 49.3 92.2999 49.4C92.3999 49.5 92.5999 49.5 92.7999 49.5C93.2999 49.5 93.5999 49.3 93.8999 49C94.1999 48.6 94.2999 48.1 94.2999 47.3C94.2999 46.7 94.1999 46.2 94.0999 45.7C93.8999 45.2 93.7999 44.8 93.4999 44.5C93.1999 44.2 92.9999 43.9 92.5999 43.8C92.2999 43.6 91.8999 43.5 91.5999 43.5C91.3999 43.5 91.1999 43.5 90.9999 43.6C90.7999 43.7 90.6999 43.7 90.5999 43.8C90.4999 43.9 90.3999 44 90.2999 44.2C90.1999 44.3 90.1999 44.5 90.1999 44.6C90.1999 44.8 90.1999 44.9 90.2999 45C90.3999 45.1 90.3999 45.3 90.4999 45.4C90.5999 45.5 90.6999 45.6 90.8999 45.6C91.0999 45.7 91.1999 45.7 91.3999 45.7C91.5999 45.7 91.6999 45.7 91.7999 45.6C91.8999 45.5 91.9999 45.5 92.0999 45.4C92.1999 45.3 92.2999 45.2 92.2999 45.1C92.6999 45.1 92.6999 45 92.6999 44.9ZM86.1999 46.4C86.2999 46.4 86.2999 46.4 86.3999 46.3C86.4999 46.3 86.4999 46.2 86.5999 46.1C86.6999 46 86.6999 45.9 86.6999 45.8C86.6999 45.7 86.7999 45.6 86.7999 45.4C86.7999 45.2 86.7999 45 86.6999 44.9C86.5999 44.8 86.4999 44.7 86.3999 44.6C86.7999 44.6 87.0999 44.4 87.1999 44.2C87.3999 44 87.3999 43.8 87.3999 43.5V43.4C87.3999 43.4 87.3999 43.4 87.3999 43.3C87.3999 43.3 87.3999 43.3 87.3999 43.2H86.5999V43.4C86.5999 43.6 86.4999 43.7 86.3999 43.8C86.2999 43.9 86.0999 44 85.7999 44H83.6999V44.5H85.0999C85.3999 44.5 85.5999 44.6 85.6999 44.7C85.7999 44.8 85.8999 45 85.8999 45.3C85.8999 45.6 85.7999 45.8 85.6999 45.9C85.5999 46 85.3999 46.1 85.0999 46.1H84.9999V46.6H85.4999C85.8999 46.6 86.1999 46.7 86.3999 46.8C86.5999 47 86.6999 47.2 86.6999 47.5C86.6999 47.9 86.5999 48.1 86.3999 48.3C86.1999 48.5 85.8999 48.6 85.5999 48.6C85.2999 48.6 84.9999 48.5 84.7999 48.3C84.5999 48.1 84.4999 47.9 84.4999 47.5V47.1H83.7999V47.2V47.3C83.7999 47.3 83.7999 47.4 83.7999 47.5C83.7999 47.8 83.8999 48 83.8999 48.2C83.9999 48.4 84.0999 48.6 84.2999 48.7C84.4999 48.8 84.6999 48.9 84.8999 49C85.0999 49.1 85.3999 49.1 85.6999 49.1C86.2999 49.1 86.7999 49 87.0999 48.7C87.3999 48.4 87.5999 48 87.5999 47.5C87.5999 47.1 87.4999 46.8 87.2999 46.5C86.8999 46.6 86.5999 46.5 86.1999 46.4ZM81.9999 48.4C81.7999 48.8 81.5999 48.9 81.1999 48.9C80.8999 48.9 80.5999 48.7 80.3999 48.4C80.1999 48 80.0999 47.5 80.0999 46.8C80.0999 46.1 80.1999 45.6 80.3999 45.2C80.5999 44.8 80.7999 44.7 81.1999 44.7C81.4999 44.7 81.7999 44.9 81.9999 45.2C82.1999 45.6 82.2999 46.1 82.2999 46.8C82.1999 47.5 82.0999 48 81.9999 48.4ZM82.8999 45.8C82.7999 45.5 82.6999 45.2 82.4999 45C82.2999 44.8 82.0999 44.6 81.8999 44.5C81.6999 44.4 81.3999 44.3 81.0999 44.3C80.7999 44.3 80.4999 44.4 80.2999 44.5C80.0999 44.6 79.8999 44.8 79.6999 45C79.4999 45.2 79.3999 45.5 79.2999 45.8C79.1999 46.1 79.1999 46.5 79.1999 46.9C79.1999 47.3 79.1999 47.6 79.2999 48C79.3999 48.3 79.4999 48.6 79.5999 48.8C79.7999 49 79.8999 49.2 80.1999 49.3C80.3999 49.4 80.6999 49.5 80.9999 49.5C81.2999 49.5 81.5999 49.4 81.7999 49.3C81.9999 49.2 82.1999 49 82.3999 48.8C82.5999 48.6 82.6999 48.3 82.6999 48C82.7999 47.7 82.7999 47.3 82.7999 46.9C82.7999 46.5 82.9999 46.1 82.8999 45.8ZM79.2999 50.7C79.1999 50.6 79.1999 50.4 79.0999 50.3C78.9999 50.2 78.9999 50 78.8999 49.9C78.7999 49.8 78.7999 49.7 78.7999 49.5C78.7999 49.4 78.7999 49.4 78.8999 49.3C78.8999 49.2 78.9999 49.2 79.0999 49.2C79.1999 49.2 79.1999 49.2 79.2999 49.3V49C79.1999 48.9 79.0999 48.9 78.9999 48.9C78.7999 48.9 78.6999 49 78.5999 49.1C78.4999 49.2 78.3999 49.4 78.3999 49.5C78.3999 49.6 78.3999 49.8 78.4999 49.9C78.5999 50 78.5999 50.2 78.6999 50.3C78.7999 50.4 78.7999 50.6 78.8999 50.7C78.9999 50.8 78.9999 51 78.9999 51.1C78.9999 51.3 78.8999 51.5 78.7999 51.7C78.5999 51.8 78.4999 51.9 78.1999 51.9C77.9999 51.9 77.8999 51.9 77.7999 51.8C77.6999 51.7 77.6999 51.7 77.6999 51.6C77.6999 51.5 77.6999 51.5 77.7999 51.4C77.8999 51.3 77.9999 51.3 78.0999 51.2C78.1999 51.1 78.2999 51.1 78.3999 51C78.4999 50.9 78.4999 50.8 78.4999 50.7C78.4999 50.5 78.3999 50.4 78.2999 50.3C78.1999 50.2 78.0999 50.2 77.8999 50.2C77.7999 50.2 77.7999 50.2 77.6999 50.2C77.5999 50.2 77.5999 50.2 77.4999 50.2V50.5H77.6999C77.7999 50.5 77.7999 50.5 77.8999 50.5V50.6C77.8999 50.7 77.8999 50.7 77.7999 50.8C77.6999 50.9 77.5999 50.9 77.4999 51C77.3999 51.1 77.2999 51.1 77.1999 51.2C77.0999 51.3 77.0999 51.4 77.0999 51.5C77.0999 51.7 77.1999 51.8 77.3999 51.9C77.5999 52 77.7999 52.1 78.0999 52.1C78.4999 52.1 78.8999 52 79.0999 51.8C79.2999 51.6 79.3999 51.3 79.3999 51C79.2999 51 79.2999 50.9 79.2999 50.7ZM77.4999 46.4C77.5999 46.4 77.5999 46.4 77.6999 46.3C77.7999 46.3 77.7999 46.2 77.8999 46.1C77.9999 46 77.9999 45.9 77.9999 45.8C77.9999 45.7 78.0999 45.6 78.0999 45.4C78.0999 45.2 78.0999 45 77.9999 44.9C77.8999 44.8 77.7999 44.7 77.6999 44.6C78.0999 44.6 78.3999 44.4 78.4999 44.2C78.6999 44 78.6999 43.8 78.6999 43.5V43.4C78.6999 43.4 78.6999 43.4 78.6999 43.3C78.6999 43.3 78.6999 43.3 78.6999 43.2H77.8999V43.4C77.8999 43.6 77.7999 43.7 77.6999 43.8C77.5999 43.9 77.3999 44 77.0999 44H74.9999V44.5H76.3999C76.6999 44.5 76.8999 44.6 76.9999 44.7C77.0999 44.8 77.1999 45 77.1999 45.3C77.1999 45.6 77.0999 45.8 76.9999 45.9C76.8999 46 76.6999 46.1 76.3999 46.1H76.2999V46.6H76.7999C77.1999 46.6 77.4999 46.7 77.6999 46.8C77.8999 47 77.9999 47.2 77.9999 47.5C77.9999 47.9 77.8999 48.1 77.6999 48.3C77.4999 48.5 77.1999 48.6 76.8999 48.6C76.5999 48.6 76.2999 48.5 76.0999 48.3C75.8999 48.1 75.7999 47.9 75.7999 47.5V47.1H74.9999V47.2V47.3C74.9999 47.3 74.9999 47.4 74.9999 47.5C74.9999 47.8 75.0999 48 75.0999 48.2C75.1999 48.4 75.2999 48.6 75.4999 48.7C75.6999 48.8 75.8999 48.9 76.0999 49C76.2999 49.1 76.5999 49.1 76.8999 49.1C77.4999 49.1 77.9999 49 78.2999 48.7C78.5999 48.4 78.7999 48 78.7999 47.5C78.7999 47.1 78.6999 46.8 78.4999 46.5C78.1999 46.6 77.8999 46.5 77.4999 46.4ZM73.1999 46.6C72.9999 46.6 72.7999 46.5 72.5999 46.3C72.3999 46.1 72.3999 45.9 72.3999 45.5C72.3999 45.3 72.4999 45.1 72.4999 44.9C72.5999 44.8 72.6999 44.7 72.8999 44.7C72.9999 44.7 73.0999 44.7 73.1999 44.8C73.2999 44.9 73.3999 44.9 73.4999 45.1C73.5999 45.2 73.5999 45.4 73.6999 45.6C73.7999 45.8 73.7999 46.1 73.7999 46.4C73.7999 46.8 73.7999 47.1 73.6999 47.4C73.5999 47.7 73.4999 48 73.2999 48.2C73.0999 48.4 72.8999 48.6 72.5999 48.8C72.2999 48.9 71.9999 49 71.5999 49C71.2999 49 70.8999 48.9 70.6999 48.8C70.3999 48.7 70.1999 48.6 69.9999 48.4C69.7999 48.2 69.6999 48 69.5999 47.8C69.4999 47.6 69.3999 47.3 69.3999 47C69.4999 47 69.4999 47 69.5999 47C69.6999 47 69.7999 47 69.8999 47C70.0999 47 70.3999 47 70.4999 46.9C70.6999 46.8 70.7999 46.7 70.9999 46.6C71.0999 46.5 71.1999 46.3 71.2999 46.1C71.3999 45.9 71.3999 45.7 71.3999 45.5C71.3999 45.3 71.3999 45.1 71.2999 45C71.1999 44.8 71.1999 44.7 71.0999 44.6C70.9999 44.5 70.8999 44.4 70.6999 44.3C70.4999 44.2 70.3999 44.2 70.0999 44.2C69.7999 44.2 69.6999 44.2 69.4999 44.3C69.2999 44.4 69.0999 44.5 68.9999 44.7C68.8999 44.9 68.6999 45.1 68.6999 45.4C68.5999 45.7 68.5999 46 68.5999 46.3C68.5999 46.7 68.6999 47.1 68.7999 47.5C68.8999 47.9 69.0999 48.2 69.3999 48.5C69.6999 48.8 69.9999 49 70.3999 49.2C70.7999 49.4 71.1999 49.4 71.6999 49.4C72.1999 49.4 72.6999 49.3 73.0999 49.2C73.4999 49 73.7999 48.8 74.0999 48.5C74.3999 48.2 74.4999 47.9 74.6999 47.5C74.7999 47.1 74.8999 46.7 74.8999 46.3C74.8999 45.9 74.8999 45.6 74.7999 45.4C74.6999 45.1 74.5999 44.9 74.4999 44.7C74.3999 44.5 74.1999 44.4 73.9999 44.3C73.7999 44.2 73.5999 44.2 73.3999 44.2C72.9999 44.2 72.6999 44.3 72.4999 44.6C72.2999 44.8 72.1999 45.1 72.1999 45.5C72.1999 45.8 72.2999 46 72.3999 46.2C72.4999 46.4 72.5999 46.5 72.7999 46.6H71.8999V47H73.7999L73.1999 46.6ZM69.0999 45.5C69.1999 45.3 69.1999 45.1 69.2999 45C69.3999 44.9 69.4999 44.8 69.5999 44.7C69.6999 44.6 69.7999 44.6 69.8999 44.6C70.1999 44.6 70.3999 44.9 70.3999 45.4C70.3999 45.8 70.2999 46 70.1999 46.2C69.9999 46.4 69.7999 46.5 69.4999 46.5H68.9999V46.4V46.3C68.9999 46 68.9999 45.7 69.0999 45.5ZM160.8 44.8H161.2C161.4 44.8 161.6 44.8 161.8 44.7C162 44.6 162.1 44.6 162.2 44.5C162.3 44.4 162.4 44.3 162.4 44.1C162.5 44 162.5 43.8 162.5 43.7V43.6C162.5 43.6 162.5 43.6 162.5 43.5C162.5 43.5 162.5 43.5 162.5 43.4H161.7V43.6C161.7 43.8 161.6 43.9 161.5 44C161.4 44.1 161.2 44.2 160.9 44.2H157.1V44.7H158.6C159.1 44.7 159.6 44.8 160 44.9C160.4 45 160.7 45.2 160.9 45.5C161.1 45.7 161.3 46 161.4 46.4C161.5 46.7 161.6 47.1 161.6 47.5C161.6 48 161.5 48.3 161.4 48.6C161.3 48.9 161.1 49 160.8 49C160.6 49 160.4 48.9 160.3 48.7C160.2 48.5 160.1 48.2 160.1 47.9V47.5H159.3V47.9C159.3 48.3 159.2 48.5 159.1 48.7C158.9 48.9 158.8 49 158.5 49C158.2 49 158.1 48.9 157.9 48.7C157.8 48.5 157.7 48.3 157.7 48C157.7 47.7 157.8 47.5 157.9 47.3C158 47.1 158.2 47 158.5 47H158.7V46.6C158.7 46.6 158.6 46.6 158.5 46.5C158.4 46.5 158.3 46.5 158.2 46.5C158 46.5 157.8 46.5 157.6 46.6C157.4 46.7 157.3 46.8 157.2 46.9C157.1 47 157 47.2 156.9 47.4C156.8 47.6 156.8 47.8 156.8 48C156.8 48.2 156.8 48.4 156.9 48.6C157 48.8 157.1 48.9 157.2 49.1C157.3 49.3 157.5 49.3 157.7 49.4C157.9 49.5 158.1 49.5 158.3 49.5C158.5 49.5 158.7 49.5 158.8 49.4C159 49.3 159.1 49.3 159.2 49.2C159.3 49.1 159.4 49.1 159.4 49C159.5 48.9 159.5 48.8 159.5 48.8C159.5 48.9 159.6 49 159.6 49C159.7 49.1 159.7 49.2 159.8 49.2C159.9 49.3 160 49.3 160.1 49.4C160.2 49.5 160.4 49.5 160.6 49.5C161.1 49.5 161.4 49.3 161.7 49C161.8 49.2 162 49.3 162.2 49.4C162.4 49.5 162.6 49.5 162.9 49.5C163.2 49.5 163.4 49.4 163.7 49.3C163.9 49.2 164.1 49 164.3 48.8C164.5 48.6 164.6 48.3 164.7 48C164.8 47.7 164.8 47.3 164.8 46.9C164.8 46.5 164.8 46.2 164.7 45.9C164.6 45.6 164.5 45.3 164.4 45.1C164.2 44.9 164.1 44.7 163.8 44.6C163.6 44.5 163.3 44.4 163 44.4C162.9 44.4 162.9 44.4 162.8 44.4C162.7 44.4 162.7 44.4 162.7 44.4V44.9H162.9C163.1 44.9 163.3 45 163.5 45.1C163.7 45.2 163.8 45.4 163.9 45.5C164 45.7 164.1 45.9 164.1 46.2C164.1 46.5 164.2 46.7 164.2 47C164.2 47.7 164.1 48.2 163.9 48.5C163.7 48.9 163.5 49 163.1 49C162.9 49 162.7 48.9 162.6 48.8C162.4 48.7 162.3 48.5 162.2 48.2C162.2 48.1 162.2 48 162.2 47.9C162.2 47.8 162.2 47.7 162.2 47.5C162.2 47.2 162.2 46.9 162.1 46.6C162 46.3 161.9 46.1 161.8 45.8C161.7 45.5 161.5 45.4 161.3 45.2C161.3 45.1 161.1 44.9 160.8 44.8ZM157.1 50.7C157 50.6 157 50.4 156.9 50.3C156.8 50.2 156.8 50 156.7 49.9C156.6 49.8 156.6 49.7 156.6 49.5C156.6 49.4 156.6 49.4 156.7 49.3C156.7 49.2 156.8 49.2 156.9 49.2C157 49.2 157 49.2 157.1 49.3V49C157 48.9 156.9 48.9 156.8 48.9C156.6 48.9 156.5 49 156.4 49.1C156.3 49.2 156.2 49.4 156.2 49.5C156.2 49.6 156.2 49.8 156.3 49.9C156.4 50 156.4 50.2 156.5 50.3C156.6 50.4 156.6 50.6 156.7 50.7C156.8 50.8 156.8 51 156.8 51.1C156.8 51.3 156.7 51.5 156.6 51.7C156.4 51.8 156.3 51.9 156 51.9C155.8 51.9 155.7 51.9 155.6 51.8C155.5 51.7 155.5 51.7 155.5 51.6C155.5 51.5 155.5 51.5 155.6 51.4C155.7 51.3 155.8 51.3 155.9 51.2C156 51.1 156.1 51.1 156.2 51C156.3 50.9 156.3 50.8 156.3 50.7C156.3 50.5 156.2 50.4 156.1 50.3C156 50.2 155.8 50.2 155.7 50.2C155.6 50.2 155.6 50.2 155.5 50.2C155.4 50.2 155.4 50.2 155.3 50.2V50.5H155.5C155.6 50.5 155.6 50.5 155.7 50.5V50.6C155.7 50.7 155.7 50.7 155.6 50.8C155.5 50.9 155.4 50.9 155.3 51C155.2 51.1 155.1 51.1 155 51.2C154.9 51.3 154.9 51.4 154.9 51.5C154.9 51.7 155 51.8 155.2 51.9C155.4 52 155.6 52.1 155.9 52.1C156.3 52.1 156.7 52 156.9 51.8C157.1 51.6 157.2 51.3 157.2 51C157.2 51 157.2 50.9 157.1 50.7ZM153.9 48.9C154 49 154 49 154.1 49.1C154.2 49.2 154.3 49.2 154.4 49.3C154.5 49.4 154.7 49.4 154.9 49.4C155.1 49.4 155.3 49.3 155.5 49.2C155.7 49.1 155.8 49 156 48.8C156.1 48.6 156.2 48.4 156.3 48.1C156.4 47.8 156.4 47.5 156.4 47.2C156.4 46.7 156.3 46.2 156.1 45.7C155.9 45.3 155.6 44.9 155.3 44.6C155.5 44.6 155.7 44.5 155.8 44.5C155.9 44.4 156.1 44.4 156.1 44.3C156.2 44.2 156.3 44.1 156.3 44C156.3 43.9 156.4 43.7 156.4 43.6C156.4 43.5 156.4 43.5 156.4 43.4H155.6V43.6C155.6 43.8 155.5 43.9 155.4 44C155.3 44.1 155.1 44.2 154.8 44.2H151V44.7H152.1C151.7 45 151.5 45.3 151.3 45.8C151.1 46.2 151 46.7 151 47.3C151 47.6 151 47.9 151.1 48.2C151.2 48.5 151.3 48.7 151.4 48.9C151.5 49.1 151.7 49.2 151.9 49.3C152.1 49.4 152.3 49.5 152.6 49.5C152.8 49.5 152.9 49.5 153.1 49.4C153.2 49.3 153.3 49.3 153.4 49.2C153.5 49.1 153.6 49.1 153.6 49C153.7 48.9 153.7 48.9 153.7 48.8C153.8 48.8 153.9 48.9 153.9 48.9ZM154.2 47.4H153.4V47.8C153.4 48.5 153.2 48.9 152.7 48.9C152.5 48.9 152.3 48.7 152.1 48.5C151.9 48.2 151.9 47.8 151.9 47.3C151.9 46.9 151.9 46.6 152 46.3C152.1 46 152.2 45.7 152.3 45.5C152.5 45.3 152.6 45.1 152.9 45C153.1 44.9 153.4 44.8 153.7 44.8C154 44.8 154.3 44.9 154.6 45C154.8 45.1 155 45.3 155.2 45.5C155.4 45.7 155.5 46 155.5 46.3C155.6 46.6 155.6 46.9 155.6 47.3C155.6 47.8 155.5 48.3 155.4 48.5C155.2 48.8 155.1 48.9 154.8 48.9C154.4 48.9 154.1 48.5 154.1 47.8L154.2 47.4ZM153.6 49.5C153.6 49.6 153.5 49.7 153.5 49.8C153.5 49.9 153.4 50.1 153.4 50.2C153.4 50.4 153.4 50.6 153.4 50.8V51H154.2V50.8C154.2 50.6 154.2 50.3 154.2 50.2C154.2 50 154.1 49.9 154.1 49.8C154.1 49.7 154 49.5 154 49.5H153.6ZM148.4 48.7C148.3 48.5 148.2 48.3 148.2 48C148.2 47.7 148.3 47.4 148.4 47.3C148.5 47.2 148.8 47.1 149 47.1H149.3V46.7C149.3 46.7 149.2 46.7 149.1 46.6C149 46.6 148.9 46.6 148.8 46.6C148.3 46.6 148 46.7 147.8 47C147.6 47.3 147.5 47.6 147.5 48C147.5 48.4 147.6 48.7 147.9 49C148.2 49.3 148.5 49.4 149 49.4C150.1 49.4 150.7 48.6 150.7 47C150.7 46.6 150.6 46.2 150.6 45.9C150.5 45.6 150.4 45.3 150.2 45.1C150 44.9 149.7 44.7 149.4 44.6C149.1 44.5 148.7 44.4 148.3 44.4H145V44.9H145.2C145.4 44.9 145.6 45 145.8 45.1C146 45.2 146.1 45.4 146.2 45.5C146.3 45.7 146.4 45.9 146.4 46.2C146.4 46.5 146.5 46.7 146.5 47C146.5 47.7 146.4 48.2 146.2 48.5C146 48.9 145.8 49 145.4 49C145.2 49 145 48.9 144.9 48.8C144.7 48.7 144.6 48.5 144.5 48.2C144.5 48.1 144.5 48 144.5 47.9C144.5 47.8 144.5 47.7 144.5 47.5C144.5 47.2 144.5 46.9 144.4 46.6C144.3 46.3 144.2 46.1 144.1 45.8C144 45.6 143.8 45.4 143.6 45.2C143.4 45 143.2 44.9 142.9 44.8H143.3C143.5 44.8 143.7 44.8 143.9 44.7C144.1 44.6 144.2 44.6 144.3 44.5C144.4 44.4 144.5 44.3 144.5 44.1C144.5 44 144.6 43.8 144.6 43.7V43.6C144.6 43.6 144.6 43.6 144.6 43.5C144.6 43.5 144.6 43.5 144.6 43.4H143.8V43.6C143.8 43.8 143.7 43.9 143.6 44C143.5 44.1 143.3 44.2 143 44.2H139.2V44.7H140.7C141.2 44.7 141.7 44.8 142.1 44.9C142.5 45 142.8 45.2 143 45.5C143.2 45.7 143.4 46 143.5 46.4C143.6 46.7 143.7 47.1 143.7 47.5C143.7 48 143.6 48.3 143.5 48.6C143.4 48.9 143.2 49 142.9 49C142.7 49 142.5 48.9 142.4 48.7C142.3 48.5 142.2 48.2 142.2 47.9V47.5H141.4V47.9C141.4 48.3 141.3 48.5 141.2 48.7C141 48.9 140.9 49 140.6 49C140.3 49 140.2 48.9 140 48.7C139.9 48.5 139.8 48.3 139.8 48C139.8 47.7 139.9 47.5 140 47.3C140.1 47.1 140.3 47 140.6 47H140.8V46.6C140.8 46.6 140.7 46.6 140.6 46.5C140.5 46.5 140.4 46.5 140.3 46.5C140.1 46.5 139.9 46.5 139.7 46.6C139.5 46.7 139.4 46.8 139.3 46.9C139.2 47 139.1 47.2 139 47.4C138.9 47.6 138.9 47.8 138.9 48C138.9 48.2 138.9 48.4 139 48.6C139.1 48.8 139.2 48.9 139.3 49.1C139.4 49.2 139.6 49.3 139.8 49.4C140 49.5 140.2 49.5 140.4 49.5C140.6 49.5 140.8 49.5 140.9 49.4C141.1 49.3 141.2 49.3 141.3 49.2C141.4 49.1 141.5 49.1 141.5 49C141.6 48.9 141.6 48.8 141.6 48.8C141.6 48.9 141.7 49 141.7 49C141.8 49.1 141.8 49.2 141.9 49.2C142 49.3 142.1 49.3 142.2 49.4C142.3 49.5 142.5 49.5 142.7 49.5C143.2 49.5 143.5 49.3 143.8 49C143.9 49.2 144.1 49.3 144.3 49.4C144.5 49.5 144.7 49.5 145 49.5C145.3 49.5 145.5 49.4 145.8 49.3C146 49.2 146.2 49 146.4 48.8C146.6 48.6 146.7 48.3 146.8 48C146.9 47.7 146.9 47.3 146.9 46.9C146.9 46.4 146.8 46 146.7 45.7C146.6 45.3 146.4 45.1 146.1 44.8H147.7C148.1 44.8 148.4 44.9 148.6 44.9C148.9 45 149 45.1 149.2 45.3C149.4 45.5 149.5 45.7 149.5 46C149.6 46.3 149.6 46.6 149.6 47C149.6 47.4 149.6 47.7 149.5 47.9C149.5 48.2 149.4 48.4 149.3 48.5C149.2 48.7 149.1 48.8 149 48.8C148.9 48.9 148.8 48.9 148.6 48.9C148.7 48.9 148.6 48.8 148.4 48.7ZM134.3 50.4C134.5 50.2 134.7 50.1 135 50.1C135.3 50.1 135.6 50.2 135.7 50.4C135.9 50.6 135.9 50.9 135.9 51.2C135.9 51.5 135.9 51.7 135.8 51.8C135.7 51.9 135.6 52 135.5 52C135.4 52 135.3 52 135.3 51.9C135.2 51.8 135.2 51.7 135.2 51.6V51.4H134.6V51.6C134.6 51.9 134.5 52 134.3 52C134.2 52 134.1 51.9 134 51.8C133.9 51.7 133.9 51.5 133.9 51.2C134.1 50.9 134.2 50.6 134.3 50.4ZM135.3 52.2C135.4 52.3 135.6 52.3 135.7 52.3C136 52.3 136.2 52.2 136.4 52C136.6 51.8 136.6 51.6 136.6 51.2C136.6 51 136.6 50.8 136.5 50.6C136.4 50.4 136.3 50.3 136.2 50.1C136.1 50 135.9 49.9 135.7 49.8C135.5 49.7 135.3 49.7 135.1 49.7C134.9 49.7 134.7 49.7 134.5 49.8C134.3 49.9 134.1 50 134 50.1C133.9 50.2 133.8 50.4 133.7 50.6C133.6 50.8 133.6 51 133.6 51.2C133.6 51.5 133.7 51.8 133.8 52C134 52.2 134.2 52.3 134.5 52.3C134.7 52.3 134.8 52.3 134.9 52.2C135 52.1 135.1 52.1 135.1 52C135.1 52.1 135.2 52.1 135.3 52.2ZM133 43.7C133.1 43.6 133.3 43.5 133.6 43.5C133.8 43.5 134 43.5 134.2 43.6C134.4 43.7 134.6 43.8 134.8 43.9C135 44 135.2 44.2 135.3 44.3C135.5 44.5 135.6 44.6 135.7 44.8C135.5 44.7 135.3 44.6 135.1 44.5C134.9 44.4 134.6 44.4 134.4 44.4C134.2 44.4 134 44.4 133.9 44.4C133.7 44.4 133.6 44.5 133.4 44.5C133.2 44.5 133.1 44.4 133 44.3C132.9 44.2 132.8 44.1 132.8 44C132.8 43.9 132.9 43.8 133 43.7ZM132.6 46.3C132.7 46 132.8 45.8 133 45.6C133.2 45.4 133.4 45.2 133.6 45.1C133.8 45 134.1 44.9 134.4 44.9C134.7 44.9 135 45 135.2 45.1C135.4 45.2 135.6 45.4 135.8 45.6C136 45.8 136.1 46.1 136.2 46.3C136.3 46.6 136.3 46.9 136.3 47.2C136.3 47.7 136.2 48.2 136.1 48.4C135.9 48.7 135.8 48.8 135.5 48.8C135.1 48.8 134.8 48.4 134.8 47.7V47.3H134V47.7C134 48.4 133.8 48.8 133.3 48.8C133.1 48.8 132.9 48.6 132.7 48.4C132.5 48.1 132.5 47.7 132.5 47.2C132.5 46.9 132.5 46.6 132.6 46.3ZM136.7 45.7C136.5 45.2 136.2 44.7 135.9 44.3C135.6 43.9 135.2 43.6 134.7 43.4C134.3 43.2 133.8 43 133.3 43C133.1 43 132.9 43 132.7 43.1C132.5 43.2 132.4 43.2 132.3 43.3C132.2 43.4 132.1 43.5 132 43.6C131.9 43.7 131.9 43.8 131.9 44C131.9 44.2 132 44.4 132.1 44.6C132.2 44.8 132.4 44.9 132.6 44.9C132.3 45.1 132 45.5 131.8 45.9C131.6 46.3 131.5 46.8 131.5 47.3C131.5 47.6 131.5 47.9 131.6 48.2C131.7 48.5 131.8 48.7 131.9 48.9C132 49.1 132.2 49.2 132.4 49.3C132.6 49.4 132.8 49.5 133.1 49.5C133.3 49.5 133.4 49.5 133.6 49.4C133.7 49.3 133.8 49.3 133.9 49.2C134 49.1 134.1 49.1 134.1 49C134.2 48.9 134.2 48.9 134.2 48.8C134.2 48.8 134.3 48.9 134.3 49C134.4 49.1 134.4 49.1 134.5 49.2C134.6 49.3 134.7 49.3 134.8 49.4C134.9 49.5 135.1 49.5 135.3 49.5C135.5 49.5 135.7 49.4 135.9 49.3C136.1 49.2 136.3 49.1 136.4 48.9C136.5 48.7 136.6 48.5 136.7 48.2C136.8 47.9 136.8 47.6 136.8 47.3C137 46.7 136.9 46.2 136.7 45.7ZM125.2 46C125.3 46.1 125.4 46.1 125.5 46.1C125.6 46.1 125.7 46 125.8 46C125.9 45.9 125.9 45.8 125.9 45.6C125.9 45.5 125.8 45.3 125.8 45.2C125.7 45.1 125.6 45.1 125.5 45.1C125.4 45.1 125.2 45.2 125.2 45.2C125.1 45.3 125.1 45.4 125.1 45.6C125 45.8 125.1 45.9 125.2 46ZM127.5 43.5V43.7C127.5 43.9 127.4 44 127.3 44.1C127.2 44.2 127 44.3 126.7 44.3H123.2V44.8H126.9C127.1 44.8 127.3 44.8 127.5 44.7C127.7 44.6 127.8 44.6 127.9 44.5C128 44.4 128.1 44.3 128.1 44.1C128.2 44 128.2 43.8 128.2 43.7V43.6C128.2 43.6 128.2 43.6 128.2 43.5C128.2 43.5 128.2 43.5 128.2 43.4L127.5 43.5ZM129.9 48.4C129.7 48.8 129.5 48.9 129.1 48.9C128.9 48.9 128.7 48.8 128.5 48.7C128.3 48.6 128.2 48.4 128.1 48.1C128.1 48 128.1 47.9 128.1 47.8C128.1 47.7 128.1 47.6 128.1 47.4C128.1 47 128.1 46.7 128 46.5C127.9 46.2 127.8 46 127.7 45.9C127.6 45.7 127.4 45.6 127.2 45.5C127 45.4 126.8 45.4 126.7 45.4H126.6C126.5 45.4 126.5 45.4 126.5 45.4V45.8C126.6 45.8 126.8 45.8 126.9 45.9C127 45.9 127.1 46 127.2 46.1C127.3 46.2 127.4 46.4 127.4 46.6C127.5 46.8 127.5 47 127.5 47.3C127.5 47.6 127.5 47.9 127.4 48.1C127.4 48.3 127.3 48.5 127.3 48.6C127.2 48.7 127.2 48.8 127.1 48.8C127 48.8 126.9 48.9 126.9 48.9C126.7 48.9 126.6 48.8 126.5 48.7C126.4 48.6 126.3 48.4 126.2 48.2L126 47.5C125.9 47.2 125.7 46.9 125.5 46.8C125.3 46.6 125 46.5 124.6 46.5C124.2 46.5 123.8 46.6 123.6 46.9C123.3 47.2 123.2 47.5 123.2 47.9C123.2 48.1 123.2 48.3 123.3 48.4C123.4 48.6 123.4 48.7 123.6 48.8C123.8 48.9 123.8 49 124 49.1C124.2 49.2 124.4 49.2 124.6 49.2C124.7 49.2 124.7 49.2 124.8 49.2H124.9V48.8C124.7 48.8 124.5 48.7 124.3 48.6C124.2 48.4 124.1 48.2 124.1 47.9C124.1 47.7 124.1 47.6 124.2 47.5C124.2 47.4 124.3 47.3 124.3 47.2C124.4 47.1 124.4 47.1 124.5 47C124.6 47 124.7 46.9 124.7 46.9C124.9 46.9 125 46.9 125.1 47C125.2 47.1 125.3 47.2 125.3 47.4L125.5 48.2C125.6 48.5 125.7 48.8 126 49C126.2 49.2 126.5 49.3 126.9 49.3C127.4 49.3 127.7 49.1 128 48.8C128.1 49 128.3 49.1 128.5 49.2C128.7 49.3 128.9 49.3 129.2 49.3C129.5 49.3 129.7 49.2 130 49.1C130.2 49 130.4 48.8 130.6 48.6C130.8 48.4 130.9 48.1 131 47.8C131.1 47.5 131.1 47.1 131.1 46.7C131.1 46.3 131.1 46 131 45.7C130.9 45.4 130.8 45.1 130.7 44.9C130.5 44.7 130.4 44.5 130.1 44.4C129.9 44.3 129.6 44.2 129.3 44.2C129.2 44.2 129.2 44.2 129.1 44.2C129 44.2 129 44.2 129 44.2V44.7H129.2C129.4 44.7 129.6 44.8 129.8 44.9C130 45 130.1 45.2 130.2 45.3C130.3 45.5 130.4 45.7 130.4 46C130.4 46.3 130.5 46.5 130.5 46.8C130.2 47.5 130.1 48 129.9 48.4ZM119.8 47.2C120 47 120.2 46.9 120.5 46.9H121V46.4H120.5C120.3 46.4 120.2 46.4 120 46.3C119.9 46.2 119.8 46.2 119.7 46.1C119.6 46 119.6 45.9 119.5 45.8C119.5 45.7 119.5 45.6 119.5 45.4C119.5 45.1 119.6 44.9 119.7 44.8C119.9 44.7 120.1 44.6 120.4 44.6H121.6V44.1H120.1C119.7 44.1 119.3 44.2 119.1 44.4C118.9 44.6 118.7 44.9 118.7 45.3C118.7 45.6 118.8 45.9 119 46.1C119.2 46.3 119.4 46.4 119.7 46.5C119.4 46.6 119.2 46.7 119.1 46.9C118.9 47.1 118.8 47.4 118.8 47.8C118.8 48 118.8 48.2 118.9 48.4C119 48.6 119.1 48.7 119.2 48.8C119.3 48.9 119.5 49 119.6 49.1C119.8 49.2 119.9 49.2 120.1 49.2C120.2 49.2 120.3 49.2 120.3 49.2C120.4 49.2 120.4 49.2 120.4 49.2V48.8H120.3C120.1 48.8 119.9 48.7 119.7 48.6C119.5 48.5 119.5 48.2 119.5 47.9C119.6 47.7 119.7 47.4 119.8 47.2ZM113.9 48.6C113.8 48.4 113.7 48.1 113.7 47.6C113.7 47.2 113.8 46.8 113.9 46.6C114 46.4 114.2 46.3 114.4 46.3C114.6 46.3 114.7 46.3 114.8 46.4H114.9C115.1 46.5 115.2 46.7 115.2 46.9C115.1 47.1 115.1 47.4 115 47.6C115 47.8 114.9 48.1 114.9 48.2C114.8 48.4 114.8 48.6 114.7 48.7C114.6 48.8 114.5 48.9 114.3 48.9C114.2 48.9 114 48.8 113.9 48.6ZM116 48.7C115.9 48.6 115.7 48.4 115.6 48.2C115.7 48 115.7 47.7 115.8 47.5C115.8 47.3 115.9 47 115.9 46.9C116 46.7 116 46.5 116.1 46.4C116.2 46.3 116.3 46.2 116.5 46.2C116.7 46.2 116.9 46.3 117 46.5C117.1 46.7 117.2 47 117.2 47.5C117.2 48 117.1 48.3 117 48.5C116.9 48.7 116.7 48.8 116.5 48.8C116.3 48.9 116.1 48.9 116 48.7ZM113.9 44.8C114.2 44.8 114.4 44.9 114.6 45.1C114.8 45.3 114.9 45.6 114.9 45.9V46C114.7 45.9 114.5 45.9 114.3 45.9C113.9 45.9 113.5 46.1 113.3 46.4C113 46.7 112.9 47.2 112.9 47.7C112.9 48.3 113 48.7 113.3 49C113.6 49.3 113.9 49.5 114.4 49.5C114.7 49.5 114.9 49.4 115.1 49.3C115.3 49.2 115.4 49 115.5 48.9C115.6 49.1 115.8 49.2 115.9 49.3C116.1 49.4 116.3 49.5 116.5 49.5C116.9 49.5 117.3 49.3 117.5 49C117.8 48.7 117.9 48.2 117.9 47.7C117.9 47.1 117.8 46.7 117.5 46.4C117.2 46.1 116.9 45.9 116.5 45.9C116.2 45.9 116 46 115.8 46.1C115.6 46.2 115.5 46.4 115.4 46.5C115.4 46.4 115.5 46.3 115.5 46.2C115.5 46.1 115.5 46 115.5 45.9C115.5 45.6 115.4 45.4 115.4 45.2C115.3 45 115.2 44.9 115.1 44.8H116.7C116.9 44.8 117.1 44.8 117.3 44.7C117.5 44.6 117.6 44.6 117.7 44.5C117.8 44.4 117.9 44.3 117.9 44.1C117.9 44 118 43.8 118 43.7V43.6C118 43.6 118 43.6 118 43.5C118 43.5 118 43.5 118 43.4H117.2V43.6C117.2 43.8 117.1 43.9 117 44C116.9 44.1 116.7 44.2 116.4 44.2H113V44.7H113.9V44.8ZM105.5 46C105.6 46.1 105.7 46.1 105.8 46.1C105.9 46.1 106 46 106.1 46C106.2 45.9 106.2 45.8 106.2 45.6C106.2 45.5 106.1 45.3 106.1 45.2C106 45.1 105.9 45.1 105.8 45.1C105.7 45.1 105.5 45.2 105.5 45.2C105.4 45.3 105.4 45.4 105.4 45.6C105.4 45.8 105.4 45.9 105.5 46ZM108.3 48.9C108.5 48.6 108.7 48.1 108.7 47.4C108.7 47 108.7 46.7 108.6 46.5C108.5 46.2 108.4 46 108.3 45.9C108.2 45.7 108 45.6 107.8 45.5C107.6 45.4 107.4 45.4 107.3 45.4H107.2C107.1 45.4 107.1 45.4 107.1 45.4V45.8C107.2 45.8 107.4 45.8 107.5 45.9C107.6 45.9 107.7 46 107.8 46.1C107.9 46.2 108 46.4 108 46.6C108.1 46.8 108.1 47 108.1 47.3C108.1 47.6 108.1 47.9 108 48.1C108 48.3 107.9 48.5 107.9 48.6C107.8 48.7 107.8 48.8 107.7 48.8C107.6 48.8 107.5 48.9 107.5 48.9C107.3 48.9 107.2 48.8 107.1 48.7C107 48.6 106.9 48.4 106.8 48.2L106.6 47.5C106.5 47.2 106.3 46.9 106.1 46.8C105.9 46.6 105.6 46.5 105.2 46.5C104.8 46.5 104.4 46.6 104.2 46.9C103.9 47.2 103.8 47.5 103.8 47.9C103.8 48.1 103.8 48.3 103.9 48.4C104 48.6 104 48.7 104.2 48.8C104.3 48.9 104.4 49 104.6 49.1C104.8 49.2 105 49.2 105.2 49.2C105.3 49.2 105.3 49.2 105.4 49.2H105.5V48.8C105.3 48.8 105.1 48.7 104.9 48.6C104.8 48.4 104.7 48.2 104.7 47.9C104.7 47.7 104.7 47.6 104.8 47.5C104.8 47.4 104.9 47.3 104.9 47.2C105 47.1 105 47.1 105.1 47C105.2 47 105.3 46.9 105.3 46.9C105.5 46.9 105.6 46.9 105.7 47C105.8 47.1 105.9 47.2 105.9 47.4L106.1 48.2C106.2 48.5 106.3 48.8 106.6 49C106.8 49.2 107.1 49.3 107.5 49.3C107.7 49.4 108 49.2 108.3 48.9ZM110.1 48.7C110 48.5 109.9 48.3 109.9 48C109.9 47.7 110 47.4 110.1 47.3C110.2 47.2 110.5 47.1 110.7 47.1H111V46.7C111 46.7 110.9 46.7 110.8 46.6C110.7 46.6 110.6 46.6 110.5 46.6C110 46.6 109.7 46.7 109.5 47C109.3 47.3 109.2 47.6 109.2 48C109.2 48.4 109.3 48.7 109.6 49C109.9 49.3 110.2 49.4 110.7 49.4C111.8 49.4 112.4 48.6 112.4 47C112.4 46.6 112.3 46.2 112.3 45.9C112.2 45.6 112.1 45.3 111.9 45.1C111.7 44.9 111.4 44.7 111.1 44.6C110.8 44.5 110.4 44.4 110 44.4H103.8V44.9H109.7C110.1 44.9 110.4 45 110.6 45C110.9 45.1 111 45.2 111.2 45.4C111.4 45.6 111.5 45.8 111.5 46.1C111.6 46.4 111.6 46.7 111.6 47.1C111.6 47.5 111.6 47.8 111.5 48C111.5 48.3 111.4 48.5 111.3 48.6C111.2 48.8 111.1 48.9 111 48.9C110.9 49 110.8 49 110.6 49C110.4 48.9 110.3 48.8 110.1 48.7ZM100.7 52.2C100.8 52.3 101 52.3 101.1 52.3C101.4 52.3 101.6 52.2 101.7 52C101.9 51.8 101.9 51.6 101.9 51.3C101.9 51 101.8 50.8 101.7 50.6C101.6 50.4 101.4 50.2 101.2 50.1H102V49.8H100.2V50.2C100.5 50.2 100.8 50.3 101 50.5C101.2 50.7 101.3 51 101.3 51.4C101.3 51.8 101.2 52 101 52.1C100.9 52.1 100.8 52.1 100.8 52C100.7 51.9 100.7 51.8 100.7 51.6V51.4H100.1V51.6C100.1 51.9 99.9999 52.1 99.7999 52.1C99.6999 52.1 99.5999 52.1 99.5999 52C99.4999 51.9 99.4999 51.8 99.4999 51.7C99.4999 51.4 99.5999 51.3 99.7999 51.3H99.9999V51H99.8999C99.7999 51 99.7999 51 99.6999 51C99.4999 51 99.2999 51.1 99.0999 51.2C98.8999 51.3 98.8999 51.5 98.8999 51.7C98.8999 51.9 98.9999 52.1 99.0999 52.2C99.2999 52.4 99.4999 52.4 99.6999 52.4C99.8999 52.4 100.1 52.4 100.2 52.3C100.3 52.2 100.4 52.2 100.4 52.1C100.5 52.1 100.6 52.1 100.7 52.2ZM100.8 48.7C100.7 48.5 100.6 48.3 100.6 48C100.6 47.7 100.7 47.4 100.8 47.3C100.9 47.2 101.1 47.1 101.4 47.1H101.7V46.7C101.7 46.7 101.6 46.7 101.5 46.6C101.4 46.6 101.3 46.6 101.2 46.6C100.7 46.6 100.4 46.7 100.2 47C99.9999 47.3 99.8999 47.6 99.8999 48C99.8999 48.4 99.9999 48.7 100.3 49C100.6 49.3 100.9 49.4 101.4 49.4C102.5 49.4 103.1 48.6 103.1 47C103.1 46.2 102.9 45.5 102.5 45C102.1 44.5 101.5 44.3 100.6 44.3H95.5999V44.8H96.1999C95.9999 44.9 95.7999 45.1 95.6999 45.3C95.5999 45.5 95.5999 45.7 95.5999 46H96.2999V45.8C96.2999 45.6 96.3999 45.4 96.4999 45.2C96.5999 45 96.7999 44.9 96.9999 44.8H97.0999C97.1999 44.9 97.1999 45 97.2999 45.1C97.2999 45.2 97.3999 45.3 97.3999 45.5C97.3999 45.7 97.3999 45.8 97.2999 46C97.1999 46.1 97.0999 46.3 96.9999 46.4C96.8999 46.5 96.6999 46.6 96.5999 46.8C96.3999 46.9 96.2999 47 96.1999 47.2C96.0999 47.3 95.9999 47.5 95.8999 47.7C95.7999 47.9 95.7999 48.1 95.7999 48.3C95.7999 48.5 95.7999 48.7 95.8999 48.8C95.9999 49 96.0999 49.1 96.1999 49.3C96.3999 49.4 96.4999 49.5 96.7999 49.6C96.9999 49.7 97.2999 49.7 97.5999 49.7C98.2999 49.7 98.7999 49.5 99.1999 49C99.5999 48.6 99.6999 47.9 99.6999 47.1C99.6999 46.6 99.5999 46.1 99.4999 45.8C99.2999 45.4 99.0999 45.2 98.7999 45H100.6C101 45 101.3 45.1 101.5 45.1C101.7 45.1 101.9 45.3 102.1 45.5C102.3 45.7 102.4 45.9 102.4 46.2C102.5 46.5 102.5 46.8 102.5 47.2C102.5 47.6 102.5 47.9 102.4 48.1C102.4 48.4 102.3 48.6 102.2 48.7C102.1 48.9 102 49 101.9 49C101.8 49.1 101.7 49.1 101.5 49.1C101.1 48.9 100.9 48.8 100.8 48.7ZM96.3999 47.6C96.4999 47.5 96.5999 47.3 96.6999 47.2C96.7999 47.1 96.9999 47 97.0999 46.9C97.1999 46.8 97.3999 46.7 97.4999 46.5C97.5999 46.4 97.6999 46.2 97.7999 46.1C97.8999 45.9 97.8999 45.7 97.8999 45.5C97.8999 45.3 97.8999 45.2 97.7999 45.1C97.6999 45 97.5999 44.9 97.5999 44.8C97.8999 44.9 98.1999 45.1 98.3999 45.5C98.5999 45.9 98.5999 46.3 98.5999 46.9C98.5999 47.6 98.4999 48.2 98.1999 48.5C97.9999 48.8 97.5999 49 97.1999 49C96.8999 49 96.5999 48.9 96.3999 48.7C96.1999 48.5 96.0999 48.3 96.0999 48.1C96.1999 47.9 96.2999 47.7 96.3999 47.6ZM92.6999 44.9L92.4999 44.5C92.4999 44.7 92.4999 44.9 92.3999 45C92.2999 45.2 92.0999 45.2 91.8999 45.2C91.6999 45.2 91.4999 45.1 91.3999 45C91.2999 44.9 91.1999 44.7 91.1999 44.6C91.1999 44.4 91.2999 44.3 91.3999 44.2C91.4999 44.1 91.6999 44 91.8999 44C92.0999 44 92.3999 44.1 92.5999 44.2C92.7999 44.3 92.9999 44.6 93.1999 44.8C93.3999 45.1 93.4999 45.4 93.5999 45.8C93.6999 46.2 93.7999 46.7 93.7999 47.2C93.7999 47.8 93.6999 48.2 93.5999 48.5C93.4999 48.8 93.2999 48.9 92.9999 48.9C92.7999 48.9 92.5999 48.8 92.4999 48.6C92.3999 48.4 92.2999 48.1 92.2999 47.8V47.4H91.4999V47.8C91.4999 48.2 91.3999 48.4 91.2999 48.6C91.1999 48.8 90.9999 48.9 90.6999 48.9C90.3999 48.9 90.2999 48.8 90.0999 48.6C89.9999 48.4 89.8999 48.2 89.8999 47.9C89.8999 47.6 89.9999 47.4 90.0999 47.2C90.1999 47 90.3999 46.9 90.6999 46.9H90.8999V46.5C90.8999 46.5 90.7999 46.5 90.6999 46.5C90.5999 46.5 90.4999 46.5 90.3999 46.5C90.1999 46.5 89.9999 46.5 89.7999 46.6C89.5999 46.7 89.4999 46.8 89.3999 46.9C89.2999 47 89.1999 47.2 89.0999 47.4C88.9999 47.6 88.9999 47.8 88.9999 48C88.9999 48.2 88.9999 48.4 89.0999 48.6C89.1999 48.8 89.2999 48.9 89.3999 49.1C89.4999 49.2 89.6999 49.3 89.8999 49.4C90.0999 49.5 90.2999 49.5 90.4999 49.5C90.6999 49.5 90.8999 49.5 90.9999 49.4C91.1999 49.3 91.2999 49.3 91.3999 49.2C91.4999 49.1 91.5999 49.1 91.5999 49C91.6999 48.9 91.6999 48.8 91.6999 48.8C91.6999 48.9 91.7999 49 91.7999 49C91.8999 49.1 91.8999 49.2 91.9999 49.2C92.0999 49.2 92.1999 49.3 92.2999 49.4C92.3999 49.5 92.5999 49.5 92.7999 49.5C93.2999 49.5 93.5999 49.3 93.8999 49C94.1999 48.6 94.2999 48.1 94.2999 47.3C94.2999 46.7 94.1999 46.2 94.0999 45.7C93.8999 45.2 93.7999 44.8 93.4999 44.5C93.1999 44.2 92.9999 43.9 92.5999 43.8C92.2999 43.6 91.8999 43.5 91.5999 43.5C91.3999 43.5 91.1999 43.5 90.9999 43.6C90.7999 43.7 90.6999 43.7 90.5999 43.8C90.4999 43.9 90.3999 44 90.2999 44.2C90.1999 44.3 90.1999 44.5 90.1999 44.6C90.1999 44.8 90.1999 44.9 90.2999 45C90.3999 45.1 90.3999 45.3 90.4999 45.4C90.5999 45.5 90.6999 45.6 90.8999 45.6C91.0999 45.7 91.1999 45.7 91.3999 45.7C91.5999 45.7 91.6999 45.7 91.7999 45.6C91.8999 45.5 91.9999 45.5 92.0999 45.4C92.1999 45.3 92.2999 45.2 92.2999 45.1C92.6999 45.1 92.6999 45 92.6999 44.9ZM86.1999 46.4C86.2999 46.4 86.2999 46.4 86.3999 46.3C86.4999 46.3 86.4999 46.2 86.5999 46.1C86.6999 46 86.6999 45.9 86.6999 45.8C86.6999 45.7 86.7999 45.6 86.7999 45.4C86.7999 45.2 86.7999 45 86.6999 44.9C86.5999 44.8 86.4999 44.7 86.3999 44.6C86.7999 44.6 87.0999 44.4 87.1999 44.2C87.3999 44 87.3999 43.8 87.3999 43.5V43.4C87.3999 43.4 87.3999 43.4 87.3999 43.3C87.3999 43.3 87.3999 43.3 87.3999 43.2H86.5999V43.4C86.5999 43.6 86.4999 43.7 86.3999 43.8C86.2999 43.9 86.0999 44 85.7999 44H83.6999V44.5H85.0999C85.3999 44.5 85.5999 44.6 85.6999 44.7C85.7999 44.8 85.8999 45 85.8999 45.3C85.8999 45.6 85.7999 45.8 85.6999 45.9C85.5999 46 85.3999 46.1 85.0999 46.1H84.9999V46.6H85.4999C85.8999 46.6 86.1999 46.7 86.3999 46.8C86.5999 47 86.6999 47.2 86.6999 47.5C86.6999 47.9 86.5999 48.1 86.3999 48.3C86.1999 48.5 85.8999 48.6 85.5999 48.6C85.2999 48.6 84.9999 48.5 84.7999 48.3C84.5999 48.1 84.4999 47.9 84.4999 47.5V47.1H83.7999V47.2V47.3C83.7999 47.3 83.7999 47.4 83.7999 47.5C83.7999 47.8 83.8999 48 83.8999 48.2C83.9999 48.4 84.0999 48.6 84.2999 48.7C84.4999 48.8 84.6999 48.9 84.8999 49C85.0999 49.1 85.3999 49.1 85.6999 49.1C86.2999 49.1 86.7999 49 87.0999 48.7C87.3999 48.4 87.5999 48 87.5999 47.5C87.5999 47.1 87.4999 46.8 87.2999 46.5C86.8999 46.6 86.5999 46.5 86.1999 46.4ZM81.9999 48.4C81.7999 48.8 81.5999 48.9 81.1999 48.9C80.8999 48.9 80.5999 48.7 80.3999 48.4C80.1999 48 80.0999 47.5 80.0999 46.8C80.0999 46.1 80.1999 45.6 80.3999 45.2C80.5999 44.8 80.7999 44.7 81.1999 44.7C81.4999 44.7 81.7999 44.9 81.9999 45.2C82.1999 45.6 82.2999 46.1 82.2999 46.8C82.1999 47.5 82.0999 48 81.9999 48.4ZM82.8999 45.8C82.7999 45.5 82.6999 45.2 82.4999 45C82.2999 44.8 82.0999 44.6 81.8999 44.5C81.6999 44.4 81.3999 44.3 81.0999 44.3C80.7999 44.3 80.4999 44.4 80.2999 44.5C80.0999 44.6 79.8999 44.8 79.6999 45C79.4999 45.2 79.3999 45.5 79.2999 45.8C79.1999 46.1 79.1999 46.5 79.1999 46.9C79.1999 47.3 79.1999 47.6 79.2999 48C79.3999 48.3 79.4999 48.6 79.5999 48.8C79.7999 49 79.8999 49.2 80.1999 49.3C80.3999 49.4 80.6999 49.5 80.9999 49.5C81.2999 49.5 81.5999 49.4 81.7999 49.3C81.9999 49.2 82.1999 49 82.3999 48.8C82.5999 48.6 82.6999 48.3 82.6999 48C82.7999 47.7 82.7999 47.3 82.7999 46.9C82.7999 46.5 82.9999 46.1 82.8999 45.8ZM79.2999 50.7C79.1999 50.6 79.1999 50.4 79.0999 50.3C78.9999 50.2 78.9999 50 78.8999 49.9C78.7999 49.8 78.7999 49.7 78.7999 49.5C78.7999 49.4 78.7999 49.4 78.8999 49.3C78.8999 49.2 78.9999 49.2 79.0999 49.2C79.1999 49.2 79.1999 49.2 79.2999 49.3V49C79.1999 48.9 79.0999 48.9 78.9999 48.9C78.7999 48.9 78.6999 49 78.5999 49.1C78.4999 49.2 78.3999 49.4 78.3999 49.5C78.3999 49.6 78.3999 49.8 78.4999 49.9C78.5999 50 78.5999 50.2 78.6999 50.3C78.7999 50.4 78.7999 50.6 78.8999 50.7C78.9999 50.8 78.9999 51 78.9999 51.1C78.9999 51.3 78.8999 51.5 78.7999 51.7C78.5999 51.8 78.4999 51.9 78.1999 51.9C77.9999 51.9 77.8999 51.9 77.7999 51.8C77.6999 51.7 77.6999 51.7 77.6999 51.6C77.6999 51.5 77.6999 51.5 77.7999 51.4C77.8999 51.3 77.9999 51.3 78.0999 51.2C78.1999 51.1 78.2999 51.1 78.3999 51C78.4999 50.9 78.4999 50.8 78.4999 50.7C78.4999 50.5 78.3999 50.4 78.2999 50.3C78.1999 50.2 78.0999 50.2 77.8999 50.2C77.7999 50.2 77.7999 50.2 77.6999 50.2C77.5999 50.2 77.5999 50.2 77.4999 50.2V50.5H77.6999C77.7999 50.5 77.7999 50.5 77.8999 50.5V50.6C77.8999 50.7 77.8999 50.7 77.7999 50.8C77.6999 50.9 77.5999 50.9 77.4999 51C77.3999 51.1 77.2999 51.1 77.1999 51.2C77.0999 51.3 77.0999 51.4 77.0999 51.5C77.0999 51.7 77.1999 51.8 77.3999 51.9C77.5999 52 77.7999 52.1 78.0999 52.1C78.4999 52.1 78.8999 52 79.0999 51.8C79.2999 51.6 79.3999 51.3 79.3999 51C79.2999 51 79.2999 50.9 79.2999 50.7ZM77.4999 46.4C77.5999 46.4 77.5999 46.4 77.6999 46.3C77.7999 46.3 77.7999 46.2 77.8999 46.1C77.9999 46 77.9999 45.9 77.9999 45.8C77.9999 45.7 78.0999 45.6 78.0999 45.4C78.0999 45.2 78.0999 45 77.9999 44.9C77.8999 44.8 77.7999 44.7 77.6999 44.6C78.0999 44.6 78.3999 44.4 78.4999 44.2C78.6999 44 78.6999 43.8 78.6999 43.5V43.4C78.6999 43.4 78.6999 43.4 78.6999 43.3C78.6999 43.3 78.6999 43.3 78.6999 43.2H77.8999V43.4C77.8999 43.6 77.7999 43.7 77.6999 43.8C77.5999 43.9 77.3999 44 77.0999 44H74.9999V44.5H76.3999C76.6999 44.5 76.8999 44.6 76.9999 44.7C77.0999 44.8 77.1999 45 77.1999 45.3C77.1999 45.6 77.0999 45.8 76.9999 45.9C76.8999 46 76.6999 46.1 76.3999 46.1H76.2999V46.6H76.7999C77.1999 46.6 77.4999 46.7 77.6999 46.8C77.8999 47 77.9999 47.2 77.9999 47.5C77.9999 47.9 77.8999 48.1 77.6999 48.3C77.4999 48.5 77.1999 48.6 76.8999 48.6C76.5999 48.6 76.2999 48.5 76.0999 48.3C75.8999 48.1 75.7999 47.9 75.7999 47.5V47.1H74.9999V47.2V47.3C74.9999 47.3 74.9999 47.4 74.9999 47.5C74.9999 47.8 75.0999 48 75.0999 48.2C75.1999 48.4 75.2999 48.6 75.4999 48.7C75.6999 48.8 75.8999 48.9 76.0999 49C76.2999 49.1 76.5999 49.1 76.8999 49.1C77.4999 49.1 77.9999 49 78.2999 48.7C78.5999 48.4 78.7999 48 78.7999 47.5C78.7999 47.1 78.6999 46.8 78.4999 46.5C78.1999 46.6 77.8999 46.5 77.4999 46.4ZM73.1999 46.6C72.9999 46.6 72.7999 46.5 72.5999 46.3C72.3999 46.1 72.3999 45.9 72.3999 45.5C72.3999 45.3 72.4999 45.1 72.4999 44.9C72.5999 44.8 72.6999 44.7 72.8999 44.7C72.9999 44.7 73.0999 44.7 73.1999 44.8C73.2999 44.9 73.3999 44.9 73.4999 45.1C73.5999 45.2 73.5999 45.4 73.6999 45.6C73.7999 45.8 73.7999 46.1 73.7999 46.4C73.7999 46.8 73.7999 47.1 73.6999 47.4C73.5999 47.7 73.4999 48 73.2999 48.2C73.0999 48.4 72.8999 48.6 72.5999 48.8C72.2999 48.9 71.9999 49 71.5999 49C71.2999 49 70.8999 48.9 70.6999 48.8C70.3999 48.7 70.1999 48.6 69.9999 48.4C69.7999 48.2 69.6999 48 69.5999 47.8C69.4999 47.6 69.3999 47.3 69.3999 47C69.4999 47 69.4999 47 69.5999 47C69.6999 47 69.7999 47 69.8999 47C70.0999 47 70.3999 47 70.4999 46.9C70.6999 46.8 70.7999 46.7 70.9999 46.6C71.0999 46.5 71.1999 46.3 71.2999 46.1C71.3999 45.9 71.3999 45.7 71.3999 45.5C71.3999 45.3 71.3999 45.1 71.2999 45C71.1999 44.8 71.1999 44.7 71.0999 44.6C70.9999 44.5 70.8999 44.4 70.6999 44.3C70.4999 44.2 70.3999 44.2 70.0999 44.2C69.7999 44.2 69.6999 44.2 69.4999 44.3C69.2999 44.4 69.0999 44.5 68.9999 44.7C68.8999 44.9 68.6999 45.1 68.6999 45.4C68.5999 45.7 68.5999 46 68.5999 46.3C68.5999 46.7 68.6999 47.1 68.7999 47.5C68.8999 47.9 69.0999 48.2 69.3999 48.5C69.6999 48.8 69.9999 49 70.3999 49.2C70.7999 49.4 71.1999 49.4 71.6999 49.4C72.1999 49.4 72.6999 49.3 73.0999 49.2C73.4999 49 73.7999 48.8 74.0999 48.5C74.3999 48.2 74.4999 47.9 74.6999 47.5C74.7999 47.1 74.8999 46.7 74.8999 46.3C74.8999 45.9 74.8999 45.6 74.7999 45.4C74.6999 45.1 74.5999 44.9 74.4999 44.7C74.3999 44.5 74.1999 44.4 73.9999 44.3C73.7999 44.2 73.5999 44.2 73.3999 44.2C72.9999 44.2 72.6999 44.3 72.4999 44.6C72.2999 44.8 72.1999 45.1 72.1999 45.5C72.1999 45.8 72.2999 46 72.3999 46.2C72.4999 46.4 72.5999 46.5 72.7999 46.6H71.8999V47H73.7999L73.1999 46.6ZM69.0999 45.5C69.1999 45.3 69.1999 45.1 69.2999 45C69.3999 44.9 69.4999 44.8 69.5999 44.7C69.6999 44.6 69.7999 44.6 69.8999 44.6C70.1999 44.6 70.3999 44.9 70.3999 45.4C70.3999 45.8 70.2999 46 70.1999 46.2C69.9999 46.4 69.7999 46.5 69.4999 46.5H68.9999V46.4V46.3C68.9999 46 68.9999 45.7 69.0999 45.5Z" fill="black"/>
</svg>
